<?xml version="1.0" encoding="UTF-8" standalone="no"?><!-- Generator: Gravit.io --><svg xmlns="http://www.w3.org/2000/svg" xmlns:xlink="http://www.w3.org/1999/xlink" style="isolation:isolate" viewBox="83 -86 1500 1300" width="1500pt" height="1300pt"><defs><clipPath id="_clipPath_Abudhu3pz9oPJmKngTMhrWnL7UL2Zmez"><rect x="83" y="-86" width="1500" height="1300"/></clipPath></defs><g clip-path="url(#_clipPath_Abudhu3pz9oPJmKngTMhrWnL7UL2Zmez)"><g style="isolation:isolate"><radialGradient id="_rgradient_0" fx="0.4945849293020506" fy="0.4364863865683797" cx="0.5" cy="0.5" r="0.5" gradientTransform="matrix(1200.667,-311.333,82.667,4144.667,191.333,-1352.667)" gradientUnits="userSpaceOnUse"><stop offset="27.926501599647878%" stop-opacity="1" style="stop-color:rgb(144,144,144)"/><stop offset="63.8532134199618%" stop-opacity="1" style="stop-color:rgb(113,113,113)"/><stop offset="73.71102773408013%" stop-opacity="1" style="stop-color:rgb(103,103,103)"/><stop offset="83.5778723281738%" stop-opacity="1" style="stop-color:rgb(93,93,93)"/></radialGradient><rect x="83" y="-86" width="1500" height="1300" transform="matrix(1,0,0,1,0,0)" fill="url(#_rgradient_0)"/></g><g style="isolation:isolate"><defs><mask id="_mask_aBBJ5L1cKcxR0KF6FxCYnLu90d2XVpXj"><path d="M 380.333 -77.91 L 1350.333 -77.91 L 1350.333 1148.09 L 380.333 1148.09 L 380.333 -77.91 Z" style="stroke:black;fill:white;stroke-miterlimit:10;"/></mask><mask id="_mask_5IgJ9xZIVAarhS2CYE6RgvDs8DsXTn73"><path d="M 380.333 -77.91 L 1350.333 -77.91 L 1350.333 1148.09 L 380.333 1148.09 L 380.333 -77.91 Z" style="stroke:black;fill:white;stroke-miterlimit:10;"/></mask></defs><g mask="url(#_mask_5IgJ9xZIVAarhS2CYE6RgvDs8DsXTn73)"><g mask="url(#_mask_aBBJ5L1cKcxR0KF6FxCYnLu90d2XVpXj)"/></g><g mask="url(#_mask_aBBJ5L1cKcxR0KF6FxCYnLu90d2XVpXj)"><use xlink:href="#img_QIkDSPMBZVpQzCIdT6RmcgvNt920rGyS" transform="matrix(1,0,0,1,380.333,-77.91)" preserveAspectRatio="none" style=""/></g><g><line x1="854.333" y1="163.022" x2="1362.333" y2="163.022" vector-effect="non-scaling-stroke" stroke-width="2" stroke-dasharray="4,6" stroke="rgb(255,255,255)" stroke-linejoin="miter" stroke-linecap="round" stroke-miterlimit="3"/><path d=" M 854.439 155.951 C 858.342 155.951 861.51 159.119 861.51 163.022 C 861.51 166.925 858.342 170.093 854.439 170.093 C 850.536 170.093 847.368 166.925 847.368 163.022 C 847.368 159.119 850.536 155.951 854.439 155.951 Z " fill="rgb(255,255,255)" stroke="none"/><path d=" M 1444.886 175.948 L 1444.886 150.096 C 1444.886 146.303 1441.807 143.223 1438.013 143.223 L 1370.207 143.223 C 1366.413 143.223 1363.333 146.303 1363.333 150.096 L 1363.333 175.948 C 1363.333 179.741 1366.413 182.821 1370.207 182.821 L 1438.013 182.821 C 1441.807 182.821 1444.886 179.741 1444.886 175.948 Z " fill="rgb(255,255,255)" stroke="none"/><g><g clip-path="url(#_clipPath_pASQq5Cr05C0d6vebO9rVLWHeEnzP482)"><text transform="matrix(1,0,0,1,1371.099,176.126)" style="font-family:'Cambria';font-weight:400;font-size:36px;font-style:normal;fill:#000000;stroke:none;">FHt</text></g><defs><clipPath id="_clipPath_pASQq5Cr05C0d6vebO9rVLWHeEnzP482"><rect x="0" y="0" width="81.89" height="41.354" transform="matrix(1,0,0,1,1359.261,142.345)"/></clipPath></defs></g></g><g><g><line x1="855.333" y1="279.443" x2="1359.333" y2="279.443" vector-effect="non-scaling-stroke" stroke-width="2" stroke-dasharray="4,6" stroke="rgb(255,255,255)" stroke-linejoin="miter" stroke-linecap="round" stroke-miterlimit="3"/><path d=" M 855.439 272.372 C 859.342 272.372 862.51 275.54 862.51 279.443 C 862.51 283.346 859.342 286.514 855.439 286.514 C 851.536 286.514 848.368 283.346 848.368 279.443 C 848.368 275.54 851.536 272.372 855.439 272.372 Z " fill="rgb(255,255,255)" stroke="none"/><path d=" M 1441.886 292.369 L 1441.886 266.517 C 1441.886 262.724 1438.807 259.644 1435.013 259.644 L 1367.207 259.644 C 1363.413 259.644 1360.333 262.724 1360.333 266.517 L 1360.333 292.369 C 1360.333 296.162 1363.413 299.242 1367.207 299.242 L 1435.013 299.242 C 1438.807 299.242 1441.886 296.162 1441.886 292.369 Z " fill="rgb(255,255,255)" stroke="none"/><g clip-path="url(#_clipPath_vhKd5H8q2UJGAB8tZMWejmO4UXV2CUmp)"><text transform="matrix(1,0,0,1,1377.19,292.547)" style="font-family:'Cambria';font-weight:400;font-size:36px;font-style:normal;fill:#000000;stroke:none;">FH</text></g><defs><clipPath id="_clipPath_vhKd5H8q2UJGAB8tZMWejmO4UXV2CUmp"><rect x="0" y="0" width="77.082" height="39.949" transform="matrix(1,0,0,1,1361.665,259.468)"/></clipPath></defs></g></g><g><line x1="776.152" y1="221.208" x2="1451.088" y2="221.208" vector-effect="non-scaling-stroke" stroke-width="2" stroke-dasharray="4,6" stroke="rgb(255,255,255)" stroke-linejoin="miter" stroke-linecap="round" stroke-miterlimit="3"/><path d=" M 776.257 214.137 C 780.16 214.137 783.328 217.305 783.328 221.208 C 783.328 225.111 780.16 228.279 776.257 228.279 C 772.355 228.279 769.186 225.111 769.186 221.208 C 769.186 217.305 772.355 214.137 776.257 214.137 Z " fill="rgb(255,255,255)" stroke="none"/><path d=" M 1533.641 234.134 L 1533.641 208.282 C 1533.641 204.489 1530.561 201.409 1526.767 201.409 L 1458.961 201.409 C 1455.167 201.409 1452.088 204.489 1452.088 208.282 L 1452.088 234.134 C 1452.088 237.927 1455.167 241.007 1458.961 241.007 L 1526.767 241.007 C 1530.561 241.007 1533.641 237.927 1533.641 234.134 Z " fill="rgb(255,255,255)" stroke="none"/><g clip-path="url(#_clipPath_AQ1LGQJTsgqZq5UUPpMnf8Quc0LWSjTB)"><text transform="matrix(1,0,0,1,1464.497,234.542)" style="font-family:'Cambria';font-weight:400;font-size:36px;font-style:normal;fill:#000000;stroke:none;">iFH</text></g><defs><clipPath id="_clipPath_AQ1LGQJTsgqZq5UUPpMnf8Quc0LWSjTB"><rect x="0" y="0" width="77.082" height="39.949" transform="matrix(1,0,0,1,1453.974,201.463)"/></clipPath></defs></g><g><path d=" M 556.179 292.418 L 556.179 346.239 L 249.099 346.239" fill="none" vector-effect="non-scaling-stroke" stroke-width="2" stroke-dasharray="4,6" stroke="rgb(255,255,255)" stroke-linejoin="miter" stroke-linecap="round" stroke-miterlimit="3"/><path d=" M 563.25 292.523 C 563.25 296.426 560.082 299.594 556.179 299.594 C 552.277 299.594 549.108 296.426 549.108 292.523 C 549.108 288.621 552.277 285.452 556.179 285.452 C 560.082 285.452 563.25 288.621 563.25 292.523 Z " fill="rgb(255,255,255)" stroke="none"/><path d=" M 166.546 333.313 L 166.546 359.164 C 166.546 362.958 169.626 366.038 173.42 366.038 L 241.226 366.038 C 245.02 366.038 248.099 362.958 248.099 359.164 L 248.099 333.313 C 248.099 329.519 245.02 326.44 241.226 326.44 L 173.42 326.44 C 169.626 326.44 166.546 329.519 166.546 333.313 Z " fill="rgb(255,255,255)" stroke="none"/><g clip-path="url(#_clipPath_B2Z9xVgCUCfNTGWA7wAIHt1i6LayIkee)"><text transform="matrix(1,0,0,1,187.164,359.343)" style="font-family:'Cambria';font-weight:400;font-size:36px;font-style:normal;fill:#000000;stroke:none;">isF</text></g><defs><clipPath id="_clipPath_B2Z9xVgCUCfNTGWA7wAIHt1i6LayIkee"><rect x="0" y="0" width="77.082" height="39.949" transform="matrix(1,0,0,1,172.018,326.264)"/></clipPath></defs></g><g><g><line x1="626.733" y1="614.418" x2="249.099" y2="614.418" vector-effect="non-scaling-stroke" stroke-width="2" stroke-dasharray="4,6" stroke="rgb(255,255,255)" stroke-linejoin="miter" stroke-linecap="round" stroke-miterlimit="3"/><path d=" M 626.627 621.489 C 622.724 621.489 619.556 618.32 619.556 614.418 C 619.556 610.515 622.724 607.346 626.627 607.346 C 630.53 607.346 633.698 610.515 633.698 614.418 C 633.698 618.32 630.53 621.489 626.627 621.489 Z " fill="rgb(255,255,255)" stroke="none"/><path d=" M 166.547 601.492 L 166.547 627.343 C 166.547 631.137 169.626 634.217 173.42 634.217 L 241.226 634.217 C 245.02 634.217 248.099 631.137 248.099 627.343 L 248.099 601.492 C 248.099 597.698 245.02 594.619 241.226 594.619 L 173.42 594.619 C 169.626 594.619 166.547 597.698 166.547 601.492 Z " fill="rgb(255,255,255)" stroke="none"/></g><g clip-path="url(#_clipPath_g4BRGQFvN7jErUi5JDNxKNT87wjNE53M)"><text transform="matrix(1,0,0,1,187.328,627.522)" style="font-family:'Cambria';font-weight:400;font-size:36px;font-style:normal;fill:#000000;stroke:none;">CK</text></g><defs><clipPath id="_clipPath_g4BRGQFvN7jErUi5JDNxKNT87wjNE53M"><rect x="0" y="0" width="77.082" height="39.949" transform="matrix(1,0,0,1,171.241,594.443)"/></clipPath></defs></g><g><line x1="616.733" y1="764.418" x2="248.558" y2="764.418" vector-effect="non-scaling-stroke" stroke-width="2" stroke-dasharray="4,6" stroke="rgb(255,255,255)" stroke-linejoin="miter" stroke-linecap="round" stroke-miterlimit="3"/><path d=" M 616.627 771.489 C 612.724 771.489 609.556 768.32 609.556 764.418 C 609.556 760.515 612.724 757.346 616.627 757.346 C 620.53 757.346 623.698 760.515 623.698 764.418 C 623.698 768.32 620.53 771.489 616.627 771.489 Z " fill="rgb(255,255,255)" stroke="none"/><path d=" M 166.005 751.492 L 166.005 777.343 C 166.005 781.137 169.085 784.217 172.878 784.217 L 240.685 784.217 C 244.478 784.217 247.558 781.137 247.558 777.343 L 247.558 751.492 C 247.558 747.698 244.478 744.619 240.685 744.619 L 172.878 744.619 C 169.085 744.619 166.005 747.698 166.005 751.492 Z " fill="rgb(255,255,255)" stroke="none"/><g><g clip-path="url(#_clipPath_sMhjx7XWkYWBrqNshKRtKSVOTVUbCM0i)"><text transform="matrix(1,0,0,1,177.475,775.598)" style="font-family:'Cambria';font-weight:400;font-size:36px;font-style:normal;fill:#000000;stroke:none;">CKb</text></g><defs><clipPath id="_clipPath_sMhjx7XWkYWBrqNshKRtKSVOTVUbCM0i"><rect x="0" y="0" width="77.082" height="39.949" transform="matrix(1,0,0,1,171.241,742.519)"/></clipPath></defs></g></g><g><line x1="556.733" y1="1054.418" x2="248.711" y2="1054.418" vector-effect="non-scaling-stroke" stroke-width="2" stroke-dasharray="4,6" stroke="rgb(255,255,255)" stroke-linejoin="miter" stroke-linecap="round" stroke-miterlimit="3"/><path d=" M 556.627 1061.489 C 552.724 1061.489 549.556 1058.32 549.556 1054.418 C 549.556 1050.515 552.724 1047.346 556.627 1047.346 C 560.53 1047.346 563.698 1050.515 563.698 1054.418 C 563.698 1058.32 560.53 1061.489 556.627 1061.489 Z " fill="rgb(255,255,255)" stroke="none"/><path d=" M 166.158 1041.492 L 166.158 1067.343 C 166.158 1071.137 169.238 1074.217 173.031 1074.217 L 240.838 1074.217 C 244.631 1074.217 247.711 1071.137 247.711 1067.343 L 247.711 1041.492 C 247.711 1037.698 244.631 1034.619 240.838 1034.619 L 173.031 1034.619 C 169.238 1034.619 166.158 1037.698 166.158 1041.492 Z " fill="rgb(255,255,255)" stroke="none"/><g clip-path="url(#_clipPath_3j8jUBJI2jEnSYEngyKxEtbsNcqvLKWa)"><text transform="matrix(1,0,0,1,180.2,1067.522)" style="font-family:'Cambria';font-weight:400;font-size:36px;font-style:normal;fill:#000000;stroke:none;">iNK</text></g><defs><clipPath id="_clipPath_3j8jUBJI2jEnSYEngyKxEtbsNcqvLKWa"><rect x="0" y="0" width="77.082" height="39.949" transform="matrix(1,0,0,1,171.241,1034.443)"/></clipPath></defs></g><g><path d=" M 507.244 540.09 L 507.244 494.352 L 373.277 494.352" fill="none" vector-effect="non-scaling-stroke" stroke-width="2" stroke-dasharray="4,6" stroke="rgb(255,255,255)" stroke-linejoin="miter" stroke-linecap="round" stroke-miterlimit="3"/><path d=" M 500.172 539.985 C 500.172 536.082 503.341 532.914 507.244 532.914 C 511.146 532.914 514.315 536.082 514.315 539.985 C 514.315 543.887 511.146 547.056 507.244 547.056 C 503.341 547.056 500.172 543.887 500.172 539.985 Z " fill="rgb(255,255,255)" stroke="none"/><path d=" M 290.724 481.426 L 290.724 507.278 C 290.724 511.071 293.804 514.151 297.597 514.151 L 365.404 514.151 C 369.197 514.151 372.277 511.071 372.277 507.278 L 372.277 481.426 C 372.277 477.633 369.197 474.553 365.404 474.553 L 297.597 474.553 C 293.804 474.553 290.724 477.633 290.724 481.426 Z " fill="rgb(255,255,255)" stroke="none"/><g clip-path="url(#_clipPath_xT2plfNTdbi0puKW3ZUyIaYwxweLZZYD)"><text transform="matrix(1,0,0,1,298.209,507.456)" style="font-family:'Cambria';font-weight:400;font-size:36px;font-style:normal;fill:#000000;stroke:none;">ERt</text></g><defs><clipPath id="_clipPath_xT2plfNTdbi0puKW3ZUyIaYwxweLZZYD"><rect x="0" y="0" width="77.082" height="39.949" transform="matrix(1,0,0,1,287.73,474.377)"/></clipPath></defs></g><g><line x1="526.562" y1="644.09" x2="374.654" y2="644.09" vector-effect="non-scaling-stroke" stroke-width="2" stroke-dasharray="4,6" stroke="rgb(255,255,255)" stroke-linejoin="miter" stroke-linecap="round" stroke-miterlimit="3"/><path d=" M 526.456 651.161 C 522.554 651.161 519.385 647.993 519.385 644.09 C 519.385 640.188 522.554 637.019 526.456 637.019 C 530.359 637.019 533.527 640.188 533.527 644.09 C 533.527 647.993 530.359 651.161 526.456 651.161 Z " fill="rgb(255,255,255)" stroke="none"/><path d=" M 292.101 631.165 L 292.101 657.016 C 292.101 660.81 295.181 663.889 298.974 663.889 L 366.781 663.889 C 370.574 663.889 373.654 660.81 373.654 657.016 L 373.654 631.165 C 373.654 627.371 370.574 624.291 366.781 624.291 L 298.974 624.291 C 295.181 624.291 292.101 627.371 292.101 631.165 Z " fill="rgb(255,255,255)" stroke="none"/><g clip-path="url(#_clipPath_vZ2h2h1gbXDpw6i18cwBd4uDmXcAjZzo)"><text transform="matrix(1,0,0,1,303.738,657.195)" style="font-family:'Cambria';font-weight:400;font-size:36px;font-style:normal;fill:#000000;stroke:none;">ER</text></g><defs><clipPath id="_clipPath_vZ2h2h1gbXDpw6i18cwBd4uDmXcAjZzo"><rect x="0" y="0" width="83.994" height="39.949" transform="matrix(1,0,0,1,284.274,624.116)"/></clipPath></defs></g><g><line x1="529.562" y1="721.09" x2="373.654" y2="721.09" vector-effect="non-scaling-stroke" stroke-width="2" stroke-dasharray="4,6" stroke="rgb(255,255,255)" stroke-linejoin="miter" stroke-linecap="round" stroke-miterlimit="3"/><path d=" M 529.456 728.161 C 525.554 728.161 522.385 724.993 522.385 721.09 C 522.385 717.188 525.554 714.019 529.456 714.019 C 533.359 714.019 536.527 717.188 536.527 721.09 C 536.527 724.993 533.359 728.161 529.456 728.161 Z " fill="rgb(255,255,255)" stroke="none"/><path d=" M 291.101 708.165 L 291.101 734.016 C 291.101 737.81 294.181 740.889 297.974 740.889 L 365.781 740.889 C 369.574 740.889 372.654 737.81 372.654 734.016 L 372.654 708.165 C 372.654 704.371 369.574 701.291 365.781 701.291 L 297.974 701.291 C 294.181 701.291 291.101 704.371 291.101 708.165 Z " fill="rgb(255,255,255)" stroke="none"/><g clip-path="url(#_clipPath_9XQLOsci7vxd4Q71VPV0WPKbYtvb5Ktl)"><text transform="matrix(1,0,0,1,293.885,734.195)" style="font-family:'Cambria';font-weight:400;font-size:36px;font-style:normal;fill:#000000;stroke:none;">ERb</text></g><defs><clipPath id="_clipPath_9XQLOsci7vxd4Q71VPV0WPKbYtvb5Ktl"><rect x="0" y="0" width="83.994" height="39.949" transform="matrix(1,0,0,1,284.274,701.116)"/></clipPath></defs></g><g><line x1="564.461" y1="843.235" x2="373.536" y2="843.235" vector-effect="non-scaling-stroke" stroke-width="2" stroke-dasharray="4,6" stroke="rgb(255,255,255)" stroke-linejoin="miter" stroke-linecap="round" stroke-miterlimit="3"/><path d=" M 564.355 850.306 C 560.453 850.306 557.284 847.138 557.284 843.235 C 557.284 839.332 560.453 836.164 564.355 836.164 C 568.258 836.164 571.426 839.332 571.426 843.235 C 571.426 847.138 568.258 850.306 564.355 850.306 Z " fill="rgb(255,255,255)" stroke="none"/><path d=" M 290.983 830.309 L 290.983 856.161 C 290.983 859.954 294.063 863.034 297.856 863.034 L 365.663 863.034 C 369.456 863.034 372.536 859.954 372.536 856.161 L 372.536 830.309 C 372.536 826.516 369.456 823.436 365.663 823.436 L 297.856 823.436 C 294.063 823.436 290.983 826.516 290.983 830.309 Z " fill="rgb(255,255,255)" stroke="none"/><g clip-path="url(#_clipPath_D7K5x7iYCz9hBU3Z8xA9Kj0I7DoowxjK)"><text transform="matrix(1,0,0,1,306.541,856.339)" style="font-family:'Cambria';font-weight:400;font-size:36px;font-style:normal;fill:#000000;stroke:none;">jw</text></g><defs><clipPath id="_clipPath_D7K5x7iYCz9hBU3Z8xA9Kj0I7DoowxjK"><rect x="0" y="0" width="83.994" height="39.949" transform="matrix(1,0,0,1,284.274,823.26)"/></clipPath></defs></g><g><line x1="739.604" y1="993.235" x2="373.258" y2="993.235" vector-effect="non-scaling-stroke" stroke-width="2" stroke-dasharray="4,6" stroke="rgb(255,255,255)" stroke-linejoin="miter" stroke-linecap="round" stroke-miterlimit="3"/><path d=" M 739.499 1000.306 C 735.596 1000.306 732.427 997.138 732.427 993.235 C 732.427 989.332 735.596 986.164 739.499 986.164 C 743.401 986.164 746.57 989.332 746.57 993.235 C 746.57 997.138 743.401 1000.306 739.499 1000.306 Z " fill="rgb(255,255,255)" stroke="none"/><path d=" M 290.705 980.309 L 290.705 1006.161 C 290.705 1009.954 293.785 1013.034 297.579 1013.034 L 365.385 1013.034 C 369.179 1013.034 372.258 1009.954 372.258 1006.161 L 372.258 980.309 C 372.258 976.516 369.179 973.436 365.385 973.436 L 297.579 973.436 C 293.785 973.436 290.705 976.516 290.705 980.309 Z " fill="rgb(255,255,255)" stroke="none"/><g clip-path="url(#_clipPath_6PZJAGfJkV9932e7rRgsvPcWH1FPvfjN)"><text transform="matrix(1,0,0,1,297.893,1006.339)" style="font-family:'Cambria';font-weight:400;font-size:36px;font-style:normal;fill:#000000;stroke:none;">iCN</text></g><defs><clipPath id="_clipPath_6PZJAGfJkV9932e7rRgsvPcWH1FPvfjN"><rect x="0" y="0" width="83.994" height="39.949" transform="matrix(1,0,0,1,284.274,973.26)"/></clipPath></defs></g><g><path d=" M 655.84 274.494 L 655.84 237.973 L 251.023 237.973" fill="none" vector-effect="non-scaling-stroke" stroke-width="2" stroke-dasharray="4,6" stroke="rgb(255,255,255)" stroke-linejoin="miter" stroke-linecap="round" stroke-miterlimit="3"/><path d=" M 648.769 274.388 C 648.769 270.485 651.937 267.317 655.84 267.317 C 659.743 267.317 662.911 270.485 662.911 274.388 C 662.911 278.291 659.743 281.459 655.84 281.459 C 651.937 281.459 648.769 278.291 648.769 274.388 Z " fill="rgb(255,255,255)" stroke="none"/><path d=" M 168.47 225.047 L 168.47 250.898 C 168.47 254.692 171.55 257.772 175.343 257.772 L 243.15 257.772 C 246.943 257.772 250.023 254.692 250.023 250.898 L 250.023 225.047 C 250.023 221.253 246.943 218.174 243.15 218.174 L 175.343 218.174 C 171.55 218.174 168.47 221.253 168.47 225.047 Z " fill="rgb(255,255,255)" stroke="none"/><g clip-path="url(#_clipPath_RftsHGadPtIhG1Y8mcELqqFCPqhl2IUG)"><text transform="matrix(1,0,0,1,187.933,251.077)" style="font-family:'Cambria';font-weight:400;font-size:36px;font-style:normal;fill:#000000;stroke:none;">sF</text></g><defs><clipPath id="_clipPath_RftsHGadPtIhG1Y8mcELqqFCPqhl2IUG"><rect x="0" y="0" width="77.082" height="39.949" transform="matrix(1,0,0,1,167.786,217.998)"/></clipPath></defs></g><g><g><line x1="854.333" y1="362.939" x2="1362.333" y2="362.272" vector-effect="non-scaling-stroke" stroke-width="2" stroke-dasharray="4,6" stroke="rgb(255,255,255)" stroke-linejoin="miter" stroke-linecap="round" stroke-miterlimit="3"/><path d=" M 854.43 355.867 C 858.332 355.862 861.505 359.027 861.51 362.929 C 861.515 366.832 858.351 370.004 854.448 370.01 C 850.546 370.015 847.373 366.85 847.368 362.948 C 847.363 359.045 850.527 355.873 854.43 355.867 Z " fill="rgb(255,255,255)" stroke="none"/><path d=" M 1444.903 375.089 L 1444.869 349.238 C 1444.864 345.444 1441.78 342.369 1437.987 342.374 L 1370.181 342.463 C 1366.387 342.468 1363.311 345.551 1363.316 349.345 L 1363.35 375.197 C 1363.355 378.99 1366.439 382.066 1370.232 382.061 L 1438.039 381.972 C 1441.832 381.967 1444.908 378.883 1444.903 375.089 Z " fill="rgb(255,255,255)" stroke="none"/><g clip-path="url(#_clipPath_8nByssBBDSPXIIojMSJueit4b8qPAFix)"><text transform="matrix(1,0,0,1,1368.337,377.889)" style="font-family:'Cambria';font-weight:400;font-size:36px;font-style:normal;fill:#000000;stroke:none;">FHb</text></g><defs><clipPath id="_clipPath_8nByssBBDSPXIIojMSJueit4b8qPAFix"><rect x="0" y="0" width="82.89" height="42.205" transform="matrix(1,0,0,1,1359.761,343.682)"/></clipPath></defs></g></g><g><g><path d=" M 778.428 555.81 L 778.428 583.409 L 1449.393 583.409" fill="none" vector-effect="non-scaling-stroke" stroke-width="2" stroke-dasharray="4,6" stroke="rgb(255,255,255)" stroke-linejoin="miter" stroke-linecap="round" stroke-miterlimit="3"/><path d=" M 785.499 555.916 C 785.499 559.819 782.33 562.987 778.428 562.987 C 774.525 562.987 771.357 559.819 771.357 555.916 C 771.357 552.013 774.525 548.845 778.428 548.845 C 782.33 548.845 785.499 552.013 785.499 555.916 Z " fill="rgb(255,255,255)" stroke="none"/><path d=" M 1531.946 596.335 L 1531.946 570.483 C 1531.946 566.69 1528.867 563.61 1525.073 563.61 L 1457.267 563.61 C 1453.473 563.61 1450.393 566.69 1450.393 570.483 L 1450.393 596.335 C 1450.393 600.128 1453.473 603.208 1457.267 603.208 L 1525.073 603.208 C 1528.867 603.208 1531.946 600.128 1531.946 596.335 Z " fill="rgb(255,255,255)" stroke="none"/><g clip-path="url(#_clipPath_dVrS5GX50VTx4bomzRH5QVDlAgl20eCN)"><text transform="matrix(1,0,0,1,1456.792,596.514)" style="font-family:'Cambria';font-weight:400;font-size:36px;font-style:normal;fill:#000000;stroke:none;">iNSt</text></g><defs><clipPath id="_clipPath_dVrS5GX50VTx4bomzRH5QVDlAgl20eCN"><rect x="0" y="0" width="81.344" height="39.858" transform="matrix(1,0,0,1,1449.393,563.48)"/></clipPath></defs></g></g><g><path d=" M 747.827 756.998 L 747.827 794.425 L 1450.14 794.425" fill="none" vector-effect="non-scaling-stroke" stroke-width="2" stroke-dasharray="4,6" stroke="rgb(255,255,255)" stroke-linejoin="miter" stroke-linecap="round" stroke-miterlimit="3"/><path d=" M 754.898 757.104 C 754.898 761.006 751.729 764.175 747.827 764.175 C 743.924 764.175 740.755 761.006 740.755 757.104 C 740.755 753.201 743.924 750.033 747.827 750.033 C 751.729 750.033 754.898 753.201 754.898 757.104 Z " fill="rgb(255,255,255)" stroke="none"/><path d=" M 1532.693 807.351 L 1532.693 781.5 C 1532.693 777.706 1529.613 774.626 1525.819 774.626 L 1458.013 774.626 C 1454.219 774.626 1451.14 777.706 1451.14 781.5 L 1451.14 807.351 C 1451.14 811.145 1454.219 814.224 1458.013 814.224 L 1525.819 814.224 C 1529.613 814.224 1532.693 811.145 1532.693 807.351 Z " fill="rgb(255,255,255)" stroke="none"/><g clip-path="url(#_clipPath_KExCLzb3FTH3xQBVcRYNNFwJOTgyf93H)"><text transform="matrix(1,0,0,1,1453.776,807.53)" style="font-family:'Cambria';font-weight:400;font-size:36px;font-style:normal;fill:#000000;stroke:none;">iNSb</text></g><defs><clipPath id="_clipPath_KExCLzb3FTH3xQBVcRYNNFwJOTgyf93H"><rect x="0" y="0" width="81.344" height="39.858" transform="matrix(1,0,0,1,1450.14,774.496)"/></clipPath></defs></g><g><g><line x1="849.192" y1="528.601" x2="1360.14" y2="528.601" vector-effect="non-scaling-stroke" stroke-width="2" stroke-dasharray="4,6" stroke="rgb(255,255,255)" stroke-linejoin="miter" stroke-linecap="round" stroke-miterlimit="3"/><path d=" M 849.298 521.53 C 853.2 521.53 856.369 524.698 856.369 528.601 C 856.369 532.503 853.2 535.672 849.298 535.672 C 845.395 535.672 842.227 532.503 842.227 528.601 C 842.227 524.698 845.395 521.53 849.298 521.53 Z " fill="rgb(255,255,255)" stroke="none"/><path d=" M 1442.693 541.527 L 1442.693 515.675 C 1442.693 511.881 1439.613 508.802 1435.819 508.802 L 1368.013 508.802 C 1364.219 508.802 1361.14 511.881 1361.14 515.675 L 1361.14 541.527 C 1361.14 545.32 1364.219 548.4 1368.013 548.4 L 1435.819 548.4 C 1439.613 548.4 1442.693 545.32 1442.693 541.527 Z " fill="rgb(255,255,255)" stroke="none"/><g clip-path="url(#_clipPath_oIcZdRnKuKXOVYKZjfMRJiQoMZ5stTAy)"><text transform="matrix(1,0,0,1,1369.921,541.705)" style="font-family:'Cambria';font-weight:400;font-size:36px;font-style:normal;fill:#000000;stroke:none;">NSt</text></g><defs><clipPath id="_clipPath_oIcZdRnKuKXOVYKZjfMRJiQoMZ5stTAy"><rect x="0" y="0" width="81.344" height="39.858" transform="matrix(1,0,0,1,1357.522,508.672)"/></clipPath></defs></g></g><g><path d=" M 747.827 663.416 L 747.827 690.416 L 1448.241 690.416" fill="none" vector-effect="non-scaling-stroke" stroke-width="2" stroke-dasharray="4,6" stroke="rgb(255,255,255)" stroke-linejoin="miter" stroke-linecap="round" stroke-miterlimit="3"/><path d=" M 754.898 663.521 C 754.898 667.424 751.729 670.592 747.827 670.592 C 743.924 670.592 740.755 667.424 740.755 663.521 C 740.755 659.619 743.924 656.45 747.827 656.45 C 751.729 656.45 754.898 659.619 754.898 663.521 Z " fill="rgb(255,255,255)" stroke="none"/><path d=" M 1530.794 703.341 L 1530.794 677.49 C 1530.794 673.696 1527.714 670.617 1523.92 670.617 L 1456.114 670.617 C 1452.32 670.617 1449.241 673.696 1449.241 677.49 L 1449.241 703.341 C 1449.241 707.135 1452.32 710.215 1456.114 710.215 L 1523.92 710.215 C 1527.714 710.215 1530.794 707.135 1530.794 703.341 Z " fill="rgb(255,255,255)" stroke="none"/><g clip-path="url(#_clipPath_spknqEWWfU8UUcySA1JBpTlMu0NP8737)"><text transform="matrix(1,0,0,1,1461.481,703.52)" style="font-family:'Cambria';font-weight:400;font-size:36px;font-style:normal;fill:#000000;stroke:none;">iNS</text></g><defs><clipPath id="_clipPath_spknqEWWfU8UUcySA1JBpTlMu0NP8737"><rect x="0" y="0" width="80.845" height="40.518" transform="matrix(1,0,0,1,1448.241,670.157)"/></clipPath></defs></g><g><line x1="847.827" y1="761.416" x2="1353.216" y2="761.416" vector-effect="non-scaling-stroke" stroke-width="2" stroke-dasharray="4,6" stroke="rgb(255,255,255)" stroke-linejoin="miter" stroke-linecap="round" stroke-miterlimit="3"/><path d=" M 847.932 754.344 C 851.835 754.344 855.003 757.513 855.003 761.416 C 855.003 765.318 851.835 768.487 847.932 768.487 C 844.03 768.487 840.861 765.318 840.861 761.416 C 840.861 757.513 844.03 754.344 847.932 754.344 Z " fill="rgb(255,255,255)" stroke="none"/><path d=" M 1435.769 774.341 L 1435.769 748.49 C 1435.769 744.696 1432.689 741.617 1428.896 741.617 L 1361.089 741.617 C 1357.296 741.617 1354.216 744.696 1354.216 748.49 L 1354.216 774.341 C 1354.216 778.135 1357.296 781.215 1361.089 781.215 L 1428.896 781.215 C 1432.689 781.215 1435.769 778.135 1435.769 774.341 Z " fill="rgb(255,255,255)" stroke="none"/><g clip-path="url(#_clipPath_PMpcJ82jcEYyd06hTBP72iXnVLrnkNoX)"><text transform="matrix(1,0,0,1,1366.481,775.52)" style="font-family:'Cambria';font-weight:400;font-size:36px;font-style:normal;fill:#000000;stroke:none;">NSb</text></g><defs><clipPath id="_clipPath_PMpcJ82jcEYyd06hTBP72iXnVLrnkNoX"><rect x="0" y="0" width="80.845" height="40.518" transform="matrix(1,0,0,1,1358.092,742.157)"/></clipPath></defs></g><g><g><line x1="851.333" y1="637.267" x2="1363.333" y2="637.267" vector-effect="non-scaling-stroke" stroke-width="2" stroke-dasharray="4,6" stroke="rgb(255,255,255)" stroke-linejoin="miter" stroke-linecap="round" stroke-miterlimit="3"/><path d=" M 851.439 630.196 C 855.342 630.196 858.51 633.365 858.51 637.267 C 858.51 641.17 855.342 644.338 851.439 644.338 C 847.536 644.338 844.368 641.17 844.368 637.267 C 844.368 633.365 847.536 630.196 851.439 630.196 Z " fill="rgb(255,255,255)" stroke="none"/><path d=" M 1445.886 650.193 L 1445.886 624.341 C 1445.886 620.548 1442.807 617.468 1439.013 617.468 L 1371.207 617.468 C 1367.413 617.468 1364.333 620.548 1364.333 624.341 L 1364.333 650.193 C 1364.333 653.986 1367.413 657.066 1371.207 657.066 L 1439.013 657.066 C 1442.807 657.066 1445.886 653.986 1445.886 650.193 Z " fill="rgb(255,255,255)" stroke="none"/><g clip-path="url(#_clipPath_wQu1K7mBaZIltqKz7jLjTYetlrwkxeDQ)"><text transform="matrix(1,0,0,1,1384.024,650.372)" style="font-family:'Cambria';font-weight:400;font-size:36px;font-style:normal;fill:#000000;stroke:none;">NS</text></g><defs><clipPath id="_clipPath_wQu1K7mBaZIltqKz7jLjTYetlrwkxeDQ"><rect x="0" y="0" width="79.658" height="38.014" transform="matrix(1,0,0,1,1366.377,618.26)"/></clipPath></defs></g></g><g><line x1="851.333" y1="847.267" x2="1362.333" y2="847.267" vector-effect="non-scaling-stroke" stroke-width="2" stroke-dasharray="4,6" stroke="rgb(255,255,255)" stroke-linejoin="miter" stroke-linecap="round" stroke-miterlimit="3"/><path d=" M 851.439 840.196 C 855.342 840.196 858.51 843.365 858.51 847.267 C 858.51 851.17 855.342 854.338 851.439 854.338 C 847.536 854.338 844.368 851.17 844.368 847.267 C 844.368 843.365 847.536 840.196 851.439 840.196 Z " fill="rgb(255,255,255)" stroke="none"/><path d=" M 1444.886 860.193 L 1444.886 834.341 C 1444.886 830.548 1441.807 827.468 1438.013 827.468 L 1370.207 827.468 C 1366.413 827.468 1363.333 830.548 1363.333 834.341 L 1363.333 860.193 C 1363.333 863.986 1366.413 867.066 1370.207 867.066 L 1438.013 867.066 C 1441.807 867.066 1444.886 863.986 1444.886 860.193 Z " fill="rgb(255,255,255)" stroke="none"/><g clip-path="url(#_clipPath_I1RocT1dgRoZ4hst0bP3YecOcXvNyKL2)"><text transform="matrix(1,0,0,1,1374.725,860.372)" style="font-family:'Cambria';font-weight:400;font-size:36px;font-style:normal;fill:#000000;stroke:none;">MO</text></g><defs><clipPath id="_clipPath_I1RocT1dgRoZ4hst0bP3YecOcXvNyKL2"><rect x="0" y="0" width="79.658" height="38.014" transform="matrix(1,0,0,1,1362.333,828.26)"/></clipPath></defs></g><g><path d=" M 760.328 847.267 L 760.328 929.774 L 372.207 929.774" fill="none" vector-effect="non-scaling-stroke" stroke-width="2" stroke-dasharray="4,6" stroke="rgb(255,255,255)" stroke-linejoin="miter" stroke-linecap="round" stroke-miterlimit="3"/><path d=" M 767.399 847.373 C 767.399 851.275 764.231 854.444 760.328 854.444 C 756.426 854.444 753.257 851.275 753.257 847.373 C 753.257 843.47 756.426 840.302 760.328 840.302 C 764.231 840.302 767.399 843.47 767.399 847.373 Z " fill="rgb(255,255,255)" stroke="none"/><path d=" M 289.654 916.848 L 289.654 942.7 C 289.654 946.493 292.733 949.573 296.527 949.573 L 364.333 949.573 C 368.127 949.573 371.207 946.493 371.207 942.7 L 371.207 916.848 C 371.207 913.055 368.127 909.975 364.333 909.975 L 296.527 909.975 C 292.733 909.975 289.654 913.055 289.654 916.848 Z " fill="rgb(255,255,255)" stroke="none"/><g clip-path="url(#_clipPath_km2xDtdftXWqFw5Isc1s4hU2YIQpJsht)"><text transform="matrix(1,0,0,1,293.832,942.878)" style="font-family:'Cambria';font-weight:400;font-size:36px;font-style:normal;fill:#000000;stroke:none;">iMO</text></g><defs><clipPath id="_clipPath_km2xDtdftXWqFw5Isc1s4hU2YIQpJsht"><rect x="0" y="0" width="79.658" height="38.014" transform="matrix(1,0,0,1,286.442,910.767)"/></clipPath></defs></g><g><path d=" M 693.53 849.71 L 693.53 890.603 L 248.323 890.603" fill="none" vector-effect="non-scaling-stroke" stroke-width="2" stroke-dasharray="4,6" stroke="rgb(255,255,255)" stroke-linejoin="miter" stroke-linecap="round" stroke-miterlimit="3"/><path d=" M 700.601 849.815 C 700.601 853.718 697.433 856.886 693.53 856.886 C 689.628 856.886 686.459 853.718 686.459 849.815 C 686.459 845.913 689.628 842.744 693.53 842.744 C 697.433 842.744 700.601 845.913 700.601 849.815 Z " fill="rgb(255,255,255)" stroke="none"/><path d=" M 165.77 877.677 L 165.77 903.529 C 165.77 907.322 168.849 910.402 172.643 910.402 L 240.45 910.402 C 244.243 910.402 247.323 907.322 247.323 903.529 L 247.323 877.677 C 247.323 873.884 244.243 870.804 240.45 870.804 L 172.643 870.804 C 168.849 870.804 165.77 873.884 165.77 877.677 Z " fill="rgb(255,255,255)" stroke="none"/><g clip-path="url(#_clipPath_oenlla5SVK1cKn17nE3lPX9avVF7kLIc)"><text transform="matrix(1,0,0,1,182.612,902.267)" style="font-family:'Cambria';font-weight:400;font-size:36px;font-style:normal;fill:#000000;stroke:none;">iLP</text></g><defs><clipPath id="_clipPath_oenlla5SVK1cKn17nE3lPX9avVF7kLIc"><rect x="0" y="0" width="79.658" height="38.014" transform="matrix(1,0,0,1,168.665,870.156)"/></clipPath></defs></g><g><path d=" M 570.53 540.517 L 570.53 566.603 L 249.405 566.603" fill="none" vector-effect="non-scaling-stroke" stroke-width="2" stroke-dasharray="4,6" stroke="rgb(255,255,255)" stroke-linejoin="miter" stroke-linecap="round" stroke-miterlimit="3"/><path d=" M 577.601 540.623 C 577.601 544.525 574.433 547.694 570.53 547.694 C 566.628 547.694 563.459 544.525 563.459 540.623 C 563.459 536.72 566.628 533.552 570.53 533.552 C 574.433 533.552 577.601 536.72 577.601 540.623 Z " fill="rgb(255,255,255)" stroke="none"/><path d=" M 166.852 553.677 L 166.852 579.529 C 166.852 583.322 169.932 586.402 173.725 586.402 L 241.532 586.402 C 245.326 586.402 248.405 583.322 248.405 579.529 L 248.405 553.677 C 248.405 549.884 245.326 546.804 241.532 546.804 L 173.725 546.804 C 169.932 546.804 166.852 549.884 166.852 553.677 Z " fill="rgb(255,255,255)" stroke="none"/><g clip-path="url(#_clipPath_ybDmIDREM51hQsZ4X2IMJn2qexYyNVzj)"><text transform="matrix(1,0,0,1,178.236,579.707)" style="font-family:'Cambria';font-weight:400;font-size:36px;font-style:normal;fill:#000000;stroke:none;">iCK</text></g><defs><clipPath id="_clipPath_ybDmIDREM51hQsZ4X2IMJn2qexYyNVzj"><rect x="0" y="0" width="79.658" height="38.014" transform="matrix(1,0,0,1,165.862,547.596)"/></clipPath></defs></g><g><line x1="851.333" y1="897.267" x2="1360.333" y2="897.267" vector-effect="non-scaling-stroke" stroke-width="2" stroke-dasharray="4,6" stroke="rgb(255,255,255)" stroke-linejoin="miter" stroke-linecap="round" stroke-miterlimit="3"/><path d=" M 851.439 890.196 C 855.342 890.196 858.51 893.365 858.51 897.267 C 858.51 901.17 855.342 904.338 851.439 904.338 C 847.536 904.338 844.368 901.17 844.368 897.267 C 844.368 893.365 847.536 890.196 851.439 890.196 Z " fill="rgb(255,255,255)" stroke="none"/><path d=" M 1442.886 910.193 L 1442.886 884.341 C 1442.886 880.548 1439.807 877.468 1436.013 877.468 L 1368.207 877.468 C 1364.413 877.468 1361.333 880.548 1361.333 884.341 L 1361.333 910.193 C 1361.333 913.986 1364.413 917.066 1368.207 917.066 L 1436.013 917.066 C 1439.807 917.066 1442.886 913.986 1442.886 910.193 Z " fill="rgb(255,255,255)" stroke="none"/><g clip-path="url(#_clipPath_wjxmfRCgAapqbavyxHYHmKsH1TYpyvbu)"><text transform="matrix(1,0,0,1,1381.325,910.372)" style="font-family:'Cambria';font-weight:400;font-size:36px;font-style:normal;fill:#000000;stroke:none;">LP</text></g><defs><clipPath id="_clipPath_wjxmfRCgAapqbavyxHYHmKsH1TYpyvbu"><rect x="0" y="0" width="79.658" height="38.014" transform="matrix(1,0,0,1,1362.377,878.26)"/></clipPath></defs></g><g><line x1="851.333" y1="1007.267" x2="1362.333" y2="1007.267" vector-effect="non-scaling-stroke" stroke-width="2" stroke-dasharray="4,6" stroke="rgb(255,255,255)" stroke-linejoin="miter" stroke-linecap="round" stroke-miterlimit="3"/><path d=" M 851.439 1000.196 C 855.342 1000.196 858.51 1003.365 858.51 1007.267 C 858.51 1011.17 855.342 1014.338 851.439 1014.338 C 847.536 1014.338 844.368 1011.17 844.368 1007.267 C 844.368 1003.365 847.536 1000.196 851.439 1000.196 Z " fill="rgb(255,255,255)" stroke="none"/><path d=" M 1444.886 1020.193 L 1444.886 994.341 C 1444.886 990.548 1441.807 987.468 1438.013 987.468 L 1370.207 987.468 C 1366.413 987.468 1363.333 990.548 1363.333 994.341 L 1363.333 1020.193 C 1363.333 1023.986 1366.413 1027.066 1370.207 1027.066 L 1438.013 1027.066 C 1441.807 1027.066 1444.886 1023.986 1444.886 1020.193 Z " fill="rgb(255,255,255)" stroke="none"/><g clip-path="url(#_clipPath_WGtd5vxnBkT3W5mTsj4Xv5vm33GO810h)"><text transform="matrix(1,0,0,1,1378.829,1020.372)" style="font-family:'Cambria';font-weight:400;font-size:36px;font-style:normal;fill:#000000;stroke:none;">CN</text></g><defs><clipPath id="_clipPath_WGtd5vxnBkT3W5mTsj4Xv5vm33GO810h"><rect x="0" y="0" width="79.658" height="38.014" transform="matrix(1,0,0,1,1362.377,988.26)"/></clipPath></defs></g><g><line x1="851.333" y1="1057.267" x2="1363.333" y2="1057.267" vector-effect="non-scaling-stroke" stroke-width="2" stroke-dasharray="4,6" stroke="rgb(255,255,255)" stroke-linejoin="miter" stroke-linecap="round" stroke-miterlimit="3"/><path d=" M 851.439 1050.196 C 855.342 1050.196 858.51 1053.365 858.51 1057.267 C 858.51 1061.17 855.342 1064.338 851.439 1064.338 C 847.536 1064.338 844.368 1061.17 844.368 1057.267 C 844.368 1053.365 847.536 1050.196 851.439 1050.196 Z " fill="rgb(255,255,255)" stroke="none"/><path d=" M 1445.886 1070.193 L 1445.886 1044.341 C 1445.886 1040.548 1442.807 1037.468 1439.013 1037.468 L 1371.207 1037.468 C 1367.413 1037.468 1364.333 1040.548 1364.333 1044.341 L 1364.333 1070.193 C 1364.333 1073.986 1367.413 1077.066 1371.207 1077.066 L 1439.013 1077.066 C 1442.807 1077.066 1445.886 1073.986 1445.886 1070.193 Z " fill="rgb(255,255,255)" stroke="none"/><g clip-path="url(#_clipPath_hbgjjBAt1W0vqT4KkfAHy10rBB7YnoGE)"><text transform="matrix(1,0,0,1,1370.977,1070.372)" style="font-family:'Cambria';font-weight:400;font-size:36px;font-style:normal;fill:#000000;stroke:none;">CNb</text></g><defs><clipPath id="_clipPath_hbgjjBAt1W0vqT4KkfAHy10rBB7YnoGE"><rect x="0" y="0" width="79.658" height="38.014" transform="matrix(1,0,0,1,1364.377,1038.26)"/></clipPath></defs></g><g><line x1="851.333" y1="1106.267" x2="1363.333" y2="1106.267" vector-effect="non-scaling-stroke" stroke-width="2" stroke-dasharray="4,6" stroke="rgb(255,255,255)" stroke-linejoin="miter" stroke-linecap="round" stroke-miterlimit="3"/><path d=" M 851.439 1099.196 C 855.342 1099.196 858.51 1102.365 858.51 1106.267 C 858.51 1110.17 855.342 1113.338 851.439 1113.338 C 847.536 1113.338 844.368 1110.17 844.368 1106.267 C 844.368 1102.365 847.536 1099.196 851.439 1099.196 Z " fill="rgb(255,255,255)" stroke="none"/><path d=" M 1445.886 1119.193 L 1445.886 1093.341 C 1445.886 1089.548 1442.807 1086.468 1439.013 1086.468 L 1371.207 1086.468 C 1367.413 1086.468 1364.333 1089.548 1364.333 1093.341 L 1364.333 1119.193 C 1364.333 1122.986 1367.413 1126.066 1371.207 1126.066 L 1439.013 1126.066 C 1442.807 1126.066 1445.886 1122.986 1445.886 1119.193 Z " fill="rgb(255,255,255)" stroke="none"/><g clip-path="url(#_clipPath_8S2lnqPdYRm9vwFDAfSTv9puIUuCORUZ)"><text transform="matrix(1,0,0,1,1373.325,1119.372)" style="font-family:'Cambria';font-weight:400;font-size:36px;font-style:normal;fill:#000000;stroke:none;">NKt</text></g><defs><clipPath id="_clipPath_8S2lnqPdYRm9vwFDAfSTv9puIUuCORUZ"><rect x="0" y="0" width="79.658" height="38.014" transform="matrix(1,0,0,1,1363.377,1087.26)"/></clipPath></defs></g><g><line x1="851.333" y1="1161.267" x2="1361.333" y2="1161.267" vector-effect="non-scaling-stroke" stroke-width="2" stroke-dasharray="4,6" stroke="rgb(255,255,255)" stroke-linejoin="miter" stroke-linecap="round" stroke-miterlimit="3"/><path d=" M 851.439 1154.196 C 855.342 1154.196 858.51 1157.365 858.51 1161.267 C 858.51 1165.17 855.342 1168.338 851.439 1168.338 C 847.536 1168.338 844.368 1165.17 844.368 1161.267 C 844.368 1157.365 847.536 1154.196 851.439 1154.196 Z " fill="rgb(255,255,255)" stroke="none"/><path d=" M 1443.886 1174.193 L 1443.886 1148.341 C 1443.886 1144.548 1440.807 1141.468 1437.013 1141.468 L 1369.207 1141.468 C 1365.413 1141.468 1362.333 1144.548 1362.333 1148.341 L 1362.333 1174.193 C 1362.333 1177.986 1365.413 1181.066 1369.207 1181.066 L 1437.013 1181.066 C 1440.807 1181.066 1443.886 1177.986 1443.886 1174.193 Z " fill="rgb(255,255,255)" stroke="none"/><g clip-path="url(#_clipPath_gKdzroYbguQROO68XM0qRCXgThunKgBV)"><text transform="matrix(1,0,0,1,1380.625,1175.372)" style="font-family:'Cambria';font-weight:400;font-size:36px;font-style:normal;fill:#000000;stroke:none;">NK</text></g><defs><clipPath id="_clipPath_gKdzroYbguQROO68XM0qRCXgThunKgBV"><rect x="0" y="0" width="79.658" height="38.014" transform="matrix(1,0,0,1,1365.377,1143.26)"/></clipPath></defs></g></g></g><defs><image width="970" height="1226" xlink:href="cloud://id=g-PGgSVcG" id="img_QIkDSPMBZVpQzCIdT6RmcgvNt920rGyS"/></defs></svg>