<?xml version="1.0" encoding="UTF-8" standalone="no"?><!-- Generator: Gravit.io --><svg xmlns="http://www.w3.org/2000/svg" xmlns:xlink="http://www.w3.org/1999/xlink" style="isolation:isolate" viewBox="0 0 50 50" width="50pt" height="50pt"><defs><clipPath id="_clipPath_SAynGUuBmMb4rXWfgaFrP7xQpb1bWw0h"><rect width="50" height="50"/></clipPath></defs><g clip-path="url(#_clipPath_SAynGUuBmMb4rXWfgaFrP7xQpb1bWw0h)"><g><path d=" M 45.74 0 L 4.26 0 C 1.906 0 0 1.906 0 4.26 L 0 45.74 C 0 48.094 1.906 50 4.26 50 L 45.74 50 C 48.094 50 50 48.094 50 45.74 L 50 4.26 C 50 1.906 48.094 0 45.74 0 Z  M 8.014 41.462 C 8.014 42.04 7.545 42.509 6.967 42.509 L 3.551 42.509 C 2.973 42.509 2.505 42.04 2.505 41.462 L 2.505 38.046 C 2.505 37.468 2.973 37 3.551 37 L 6.967 37 C 7.545 37 8.014 37.468 8.014 38.046 L 8.014 41.462 Z  M 8.014 31.452 C 8.014 32.03 7.545 32.498 6.967 32.498 L 3.551 32.498 C 2.973 32.498 2.505 32.03 2.505 31.452 L 2.505 28.036 C 2.505 27.458 2.973 26.989 3.551 26.989 L 6.967 26.989 C 7.545 26.989 8.014 27.458 8.014 28.036 L 8.014 31.452 Z  M 8.014 21.442 C 8.014 22.02 7.545 22.488 6.967 22.488 L 3.551 22.488 C 2.973 22.488 2.505 22.02 2.505 21.442 L 2.505 18.026 C 2.505 17.448 2.973 16.979 3.551 16.979 L 6.967 16.979 C 7.545 16.979 8.014 17.448 8.014 18.026 L 8.014 21.442 Z  M 8.014 11.431 C 8.014 12.009 7.545 12.478 6.967 12.478 L 3.551 12.478 C 2.973 12.478 2.505 12.009 2.505 11.431 L 2.505 8.015 C 2.505 7.437 2.973 6.969 3.551 6.969 L 6.967 6.969 C 7.545 6.969 8.014 7.437 8.014 8.015 L 8.014 11.431 Z  M 39.481 42.95 C 39.481 42.996 39.452 43.032 39.416 43.032 L 10.584 43.032 C 10.547 43.032 10.519 42.996 10.519 42.95 L 10.519 7.05 C 10.519 7.004 10.547 6.969 10.584 6.969 L 39.416 6.969 C 39.452 6.969 39.481 7.004 39.481 7.05 L 39.481 42.95 Z  M 47.495 41.462 C 47.495 42.04 47.026 42.509 46.448 42.509 L 43.033 42.509 C 42.455 42.509 41.986 42.04 41.986 41.462 L 41.986 38.046 C 41.986 37.468 42.455 37 43.033 37 L 46.448 37 C 47.026 37 47.495 37.468 47.495 38.046 L 47.495 41.462 Z  M 47.495 31.452 C 47.495 32.03 47.026 32.498 46.448 32.498 L 43.033 32.498 C 42.455 32.498 41.986 32.03 41.986 31.452 L 41.986 28.036 C 41.986 27.458 42.455 26.989 43.033 26.989 L 46.448 26.989 C 47.026 26.989 47.495 27.458 47.495 28.036 L 47.495 31.452 Z  M 47.495 21.442 C 47.495 22.02 47.026 22.488 46.448 22.488 L 43.033 22.488 C 42.455 22.488 41.986 22.02 41.986 21.442 L 41.986 18.026 C 41.986 17.448 42.455 16.979 43.033 16.979 L 46.448 16.979 C 47.026 16.979 47.495 17.448 47.495 18.026 L 47.495 21.442 Z  M 47.495 11.431 C 47.495 12.009 47.026 12.478 46.448 12.478 L 43.033 12.478 C 42.455 12.478 41.986 12.009 41.986 11.431 L 41.986 8.015 C 41.986 7.437 42.455 6.969 43.033 6.969 L 46.448 6.969 C 47.026 6.969 47.495 7.437 47.495 8.015 L 47.495 11.431 Z " fill="rgb(0,0,0)"/><path d=" M 30.578 23.186 L 21.643 17.715 C 20.226 16.848 18.405 17.867 18.405 19.529 L 18.405 30.471 C 18.405 32.133 20.226 33.153 21.643 32.285 L 30.578 26.814 C 31.933 25.984 31.933 24.016 30.578 23.186 Z " fill="rgb(0,0,0)"/></g></g></svg>