<?xml version="1.0" encoding="UTF-8" standalone="no"?><!-- Generator: Gravit.io --><svg xmlns="http://www.w3.org/2000/svg" xmlns:xlink="http://www.w3.org/1999/xlink" style="isolation:isolate" viewBox="418 285.433 127.19 163.567" width="127.19pt" height="163.567pt"><g><g><mask id="_mask_N4xgNXo962JjFYlL9mhPHZvKSJLHyVXz"><path d=" M 440.704 390.397 C 436.969 369.759 443.858 351.209 456.078 348.998 C 468.298 346.787 481.25 361.747 484.985 382.384 C 488.719 403.022 481.83 421.572 469.61 423.783 C 457.391 425.994 444.438 411.035 440.704 390.397 Z " fill="white" stroke="none"/></mask><path d=" M 440.704 390.397 C 436.969 369.759 443.858 351.209 456.078 348.998 C 468.298 346.787 481.25 361.747 484.985 382.384 C 488.719 403.022 481.83 421.572 469.61 423.783 C 457.391 425.994 444.438 411.035 440.704 390.397 Z " fill="none"/><path d=" M 440.704 390.397 C 436.969 369.759 443.858 351.209 456.078 348.998 C 468.298 346.787 481.25 361.747 484.985 382.384 C 488.719 403.022 481.83 421.572 469.61 423.783 C 457.391 425.994 444.438 411.035 440.704 390.397 Z " fill="none" mask="url(#_mask_N4xgNXo962JjFYlL9mhPHZvKSJLHyVXz)" vector-effect="non-scaling-stroke" stroke-width="10" stroke="rgb(0,0,0)" stroke-linejoin="miter" stroke-linecap="square" stroke-miterlimit="3"/><mask id="_mask_JOM8UzyXGArNqs6zQia6HmxtQ7CiBod3"><path d=" M 491.891 378.159 C 499.054 358.016 515.359 345.393 528.28 349.988 C 541.2 354.582 545.875 374.666 538.712 394.809 C 531.55 414.952 515.245 427.575 502.324 422.981 C 489.403 418.386 484.728 398.302 491.891 378.159 Z " fill="white" stroke="none"/></mask><path d=" M 491.891 378.159 C 499.054 358.016 515.359 345.393 528.28 349.988 C 541.2 354.582 545.875 374.666 538.712 394.809 C 531.55 414.952 515.245 427.575 502.324 422.981 C 489.403 418.386 484.728 398.302 491.891 378.159 Z " fill="none"/><path d=" M 491.891 378.159 C 499.054 358.016 515.359 345.393 528.28 349.988 C 541.2 354.582 545.875 374.666 538.712 394.809 C 531.55 414.952 515.245 427.575 502.324 422.981 C 489.403 418.386 484.728 398.302 491.891 378.159 Z " fill="none" mask="url(#_mask_JOM8UzyXGArNqs6zQia6HmxtQ7CiBod3)" vector-effect="non-scaling-stroke" stroke-width="10" stroke="rgb(0,0,0)" stroke-linejoin="miter" stroke-linecap="square" stroke-miterlimit="3"/><path d=" M 499.444 398.985 C 502.359 393.038 508.731 390.173 513.664 392.591 C 518.596 395.009 520.234 401.801 517.319 407.748 C 514.404 413.695 508.033 416.56 503.1 414.141 C 498.167 411.723 496.529 404.932 499.444 398.985 Z " fill="rgb(0,0,0)"/><path d=" M 457.817 410.281 C 454.724 404.425 456.157 397.587 461.015 395.022 C 465.873 392.457 472.328 395.129 475.42 400.986 C 478.513 406.842 477.08 413.68 472.222 416.245 C 467.364 418.81 460.909 416.138 457.817 410.281 Z " fill="rgb(0,0,0)"/><path d=" M 439 341 C 448.496 326.25 477.47 310.091 483 326 Q 486.385 337.394 487 346 Q 488.614 329.593 496 326 Q 512.835 317.811 538 352" fill="none" vector-effect="non-scaling-stroke" stroke-width="7" stroke="rgb(0,0,0)" stroke-linejoin="round" stroke-linecap="round" stroke-miterlimit="3"/><mask id="_mask_Z4ZKHq2UMyw4p5iK7u1kppiFxzvcbD9T"><ellipse vector-effect="non-scaling-stroke" cx="428.5000000000002" cy="442.00000000000017" rx="10.5" ry="7" fill="white" stroke="none"/></mask><ellipse vector-effect="non-scaling-stroke" cx="428.5000000000002" cy="442.00000000000017" rx="10.5" ry="7" fill="none"/><ellipse vector-effect="non-scaling-stroke" cx="428.5000000000002" cy="442.00000000000017" rx="10.5" ry="7" fill="none" mask="url(#_mask_Z4ZKHq2UMyw4p5iK7u1kppiFxzvcbD9T)" stroke-width="6" stroke="rgb(0,0,0)" stroke-linejoin="miter" stroke-linecap="square" stroke-miterlimit="3"/><mask id="_mask_Fe61l3HkOpqLecUItygwGKVldVt7cGk3"><ellipse vector-effect="non-scaling-stroke" cx="445.5" cy="437.9999999999999" rx="10.5" ry="9.000000000000227" fill="white" stroke="none"/></mask><ellipse vector-effect="non-scaling-stroke" cx="445.5" cy="437.9999999999999" rx="10.5" ry="9.000000000000227" fill="none"/><ellipse vector-effect="non-scaling-stroke" cx="445.5" cy="437.9999999999999" rx="10.5" ry="9.000000000000227" fill="none" mask="url(#_mask_Fe61l3HkOpqLecUItygwGKVldVt7cGk3)" stroke-width="6" stroke="rgb(0,0,0)" stroke-linejoin="miter" stroke-linecap="square" stroke-miterlimit="3"/><mask id="_mask_8DoQGhPaJyzuPcsKvt9du6LGwe6fEl3i"><ellipse vector-effect="non-scaling-stroke" cx="511.50000000000045" cy="438.49999999999994" rx="11.499999999999886" ry="10.500000000000057" fill="white" stroke="none"/></mask><ellipse vector-effect="non-scaling-stroke" cx="511.50000000000045" cy="438.49999999999994" rx="11.499999999999886" ry="10.500000000000057" fill="none"/><ellipse vector-effect="non-scaling-stroke" cx="511.50000000000045" cy="438.49999999999994" rx="11.499999999999886" ry="10.500000000000057" fill="none" mask="url(#_mask_8DoQGhPaJyzuPcsKvt9du6LGwe6fEl3i)" stroke-width="6" stroke="rgb(0,0,0)" stroke-linejoin="miter" stroke-linecap="square" stroke-miterlimit="3"/><mask id="_mask_xBrFdftTl3P9A7lxEtHIjGohPwYzgnXT"><ellipse vector-effect="non-scaling-stroke" cx="532.5952380952381" cy="440.4999999999998" rx="12.595238095237846" ry="8.500000000000057" fill="white" stroke="none"/></mask><ellipse vector-effect="non-scaling-stroke" cx="532.5952380952381" cy="440.4999999999998" rx="12.595238095237846" ry="8.500000000000057" fill="none"/><ellipse vector-effect="non-scaling-stroke" cx="532.5952380952381" cy="440.4999999999998" rx="12.595238095237846" ry="8.500000000000057" fill="none" mask="url(#_mask_xBrFdftTl3P9A7lxEtHIjGohPwYzgnXT)" stroke-width="8" stroke="rgb(0,0,0)" stroke-linejoin="miter" stroke-linecap="square" stroke-miterlimit="3"/><mask id="_mask_iQj9USVVGLXjqtnHIqrSM5hZrodFvWcW"><ellipse vector-effect="non-scaling-stroke" cx="464.50000000000045" cy="436.99999999999966" rx="10.5" ry="10.000000000000057" fill="white" stroke="none"/></mask><ellipse vector-effect="non-scaling-stroke" cx="464.50000000000045" cy="436.99999999999966" rx="10.5" ry="10.000000000000057" fill="none"/><ellipse vector-effect="non-scaling-stroke" cx="464.50000000000045" cy="436.99999999999966" rx="10.5" ry="10.000000000000057" fill="none" mask="url(#_mask_iQj9USVVGLXjqtnHIqrSM5hZrodFvWcW)" stroke-width="8" stroke="rgb(0,0,0)" stroke-linejoin="miter" stroke-linecap="square" stroke-miterlimit="3"/></g></g></svg>