<?xml version="1.0" encoding="UTF-8" standalone="no"?><!-- Generator: Gravit.io --><svg xmlns="http://www.w3.org/2000/svg" xmlns:xlink="http://www.w3.org/1999/xlink" style="isolation:isolate" viewBox="0 0 2500 1500" width="2500pt" height="1500pt"><defs><clipPath id="_clipPath_VXV454eMW2aySo5AKlKxhjd6onPSm4AP"><rect width="2500" height="1500"/></clipPath></defs><g clip-path="url(#_clipPath_VXV454eMW2aySo5AKlKxhjd6onPSm4AP)"><g style="isolation:isolate"><g><path d=" M 1225.999 1184 L 1182.823 1300.042 L 1139.618 1184 L 1105.277 1184 L 1161.082 1334.329 L 1204.48 1334.329 L 1260.314 1184 L 1225.999 1184 L 1225.999 1184 Z " fill="rgb(35,31,32)"/><path d=" M 952.594 1334.329 L 1071.322 1334.329 L 1084.201 1299.71 L 1084.201 1184 L 1016.375 1184 L 1016.375 1216.237 L 1049.859 1216.237 L 1049.859 1299.71 L 974.057 1299.71 L 974.057 1184 L 939.771 1184 L 939.743 1299.71 L 952.594 1334.329 L 952.594 1334.329 Z " fill="rgb(35,31,32)"/><path d=" M 1391.533 1299.71 L 1315.704 1299.71 L 1315.704 1184 L 1281.39 1184 L 1281.39 1299.71 L 1294.268 1334.329 L 1412.969 1334.329 L 1425.847 1299.71 L 1425.847 1184 L 1391.533 1184 L 1391.533 1299.71 L 1391.533 1299.71 Z " fill="rgb(35,31,32)"/><rect x="939.771" y="1368.948" width="936.565" height="2.77" transform="matrix(1,0,0,1,0,0)" fill="rgb(35,31,32)"/><path d=" M 962.425 1409.078 L 962.425 1439.21 C 962.472 1440.823 961.85 1442.383 960.707 1443.521 C 959.563 1444.659 958 1445.274 956.388 1445.22 L 945.697 1445.22 C 944.097 1445.259 942.551 1444.637 941.424 1443.499 C 940.297 1442.362 939.689 1440.81 939.743 1439.21 L 939.743 1409.078 L 943.426 1409.078 L 943.426 1438.545 C 943.349 1439.404 943.657 1440.253 944.266 1440.863 C 944.876 1441.472 945.725 1441.78 946.584 1441.703 L 955.363 1441.703 C 956.219 1441.77 957.062 1441.459 957.67 1440.852 C 958.277 1440.245 958.588 1439.402 958.52 1438.545 L 958.52 1409.078 L 962.425 1409.078 Z " fill="rgb(35,31,32)"/><path d=" M 985.135 1409.078 L 1010.476 1409.078 L 1010.476 1412.623 L 999.731 1412.623 L 999.731 1445.22 L 996.047 1445.22 L 996.047 1412.623 L 985.246 1412.623 L 985.135 1409.078 Z " fill="rgb(35,31,32)"/><path d=" M 1055.564 1445.22 L 1051.714 1445.22 L 1048.474 1435.887 L 1034.045 1435.887 L 1030.888 1445.22 L 1027.038 1445.22 L 1039.501 1409.216 L 1043.129 1409.216 L 1055.564 1445.22 Z  M 1035.236 1432.314 L 1047.338 1432.314 L 1041.301 1413.703 L 1035.236 1432.314 Z " fill="rgb(35,31,32)"/><path d=" M 1099.239 1428.298 L 1082.982 1428.298 L 1082.982 1445.22 L 1079.132 1445.22 L 1079.132 1409.216 L 1082.954 1409.216 L 1082.954 1424.892 L 1099.211 1424.892 L 1099.211 1409.216 L 1103.033 1409.216 L 1103.033 1445.22 L 1099.211 1445.22 L 1099.239 1428.298 Z " fill="rgb(35,31,32)"/><path d=" M 1170.526 1445.22 L 1166.621 1445.22 L 1155.072 1409.216 L 1158.922 1409.216 L 1168.588 1440.096 L 1178.198 1409.216 L 1182.047 1409.216 L 1170.526 1445.22 Z " fill="rgb(35,31,32)"/><path d=" M 1226.747 1445.22 L 1222.898 1445.22 L 1219.63 1435.887 L 1205.2 1435.887 L 1202.071 1445.22 L 1198.221 1445.22 L 1210.712 1409.216 L 1214.284 1409.216 L 1226.747 1445.22 Z  M 1206.53 1432.314 L 1218.633 1432.314 L 1212.623 1413.703 L 1206.53 1432.314 Z " fill="rgb(35,31,32)"/><path d=" M 1250.343 1409.078 L 1254.138 1409.078 L 1254.138 1441.703 L 1270.478 1441.703 L 1270.478 1445.22 L 1250.343 1445.22 L 1250.343 1409.078 Z " fill="rgb(35,31,32)"/><path d=" M 1294.572 1409.078 L 1298.367 1409.078 L 1298.367 1441.703 L 1314.707 1441.703 L 1314.707 1445.22 L 1294.572 1445.22 L 1294.572 1409.078 Z " fill="rgb(35,31,32)"/><path d=" M 1338.774 1409.078 L 1359.407 1409.078 L 1359.407 1412.623 L 1342.568 1412.623 L 1342.568 1424.753 L 1357.883 1424.753 L 1357.883 1428.298 L 1342.568 1428.298 L 1342.568 1441.703 L 1359.517 1441.703 L 1359.517 1445.22 L 1338.774 1445.22 L 1338.774 1409.078 Z " fill="rgb(35,31,32)"/><path d=" M 1394.136 1427.274 L 1403.414 1409.078 L 1407.43 1409.078 L 1396.075 1431.428 L 1396.075 1445.275 L 1392.225 1445.275 L 1392.225 1431.428 L 1381.009 1409.078 L 1384.997 1409.078 L 1394.136 1427.274 Z " fill="rgb(35,31,32)"/><path d=" M 1481.154 1409.078 L 1481.154 1439.21 C 1481.201 1440.823 1480.579 1442.383 1479.436 1443.521 C 1478.292 1444.659 1476.729 1445.274 1475.117 1445.22 L 1464.426 1445.22 C 1462.826 1445.259 1461.28 1444.637 1460.153 1443.499 C 1459.026 1442.362 1458.418 1440.81 1458.472 1439.21 L 1458.472 1409.078 L 1462.266 1409.078 L 1462.266 1438.545 C 1462.189 1439.404 1462.496 1440.253 1463.106 1440.863 C 1463.716 1441.472 1464.565 1441.78 1465.423 1441.703 L 1474.203 1441.703 C 1475.062 1441.78 1475.91 1441.472 1476.52 1440.863 C 1477.13 1440.253 1477.437 1439.404 1477.36 1438.545 L 1477.36 1409.078 L 1481.154 1409.078 Z " fill="rgb(35,31,32)"/><path d=" M 1531.448 1445.22 L 1527.793 1445.22 L 1510.843 1415.974 L 1510.843 1445.22 L 1507.16 1445.22 L 1507.16 1409.216 L 1510.843 1409.216 L 1527.793 1438.379 L 1527.793 1409.078 L 1531.476 1409.078 L 1531.448 1445.22 Z " fill="rgb(35,31,32)"/><path d=" M 1561.775 1445.22 L 1557.98 1445.22 L 1557.98 1409.216 L 1561.775 1409.216 L 1561.775 1445.22 Z " fill="rgb(35,31,32)"/><path d=" M 1600.686 1445.22 L 1596.753 1445.22 L 1585.205 1409.216 L 1589.054 1409.216 L 1598.72 1440.096 L 1608.33 1409.216 L 1612.18 1409.216 L 1600.686 1445.22 Z " fill="rgb(35,31,32)"/><path d=" M 1635.333 1409.078 L 1655.966 1409.078 L 1655.966 1412.623 L 1639.127 1412.623 L 1639.127 1424.753 L 1654.442 1424.753 L 1654.442 1428.298 L 1639.127 1428.298 L 1639.127 1441.703 L 1656.076 1441.703 L 1656.076 1445.22 L 1635.333 1445.22 L 1635.333 1409.078 Z " fill="rgb(35,31,32)"/><path d=" M 1681.251 1409.078 L 1697.868 1409.078 C 1699.481 1409.022 1701.044 1409.642 1702.179 1410.789 C 1703.315 1411.935 1703.921 1413.503 1703.85 1415.115 L 1703.85 1424.006 C 1704.002 1427.024 1701.784 1429.641 1698.782 1429.988 L 1706.232 1445.275 L 1702.272 1445.275 L 1694.822 1430.043 L 1685.018 1430.043 L 1685.018 1445.275 L 1681.223 1445.275 L 1681.251 1409.078 Z  M 1685.045 1426.498 L 1697.037 1426.498 C 1697.899 1426.62 1698.768 1426.329 1699.383 1425.714 C 1699.998 1425.099 1700.289 1424.23 1700.167 1423.369 L 1700.167 1415.697 C 1700.289 1414.835 1699.998 1413.967 1699.383 1413.351 C 1698.768 1412.736 1697.899 1412.446 1697.037 1412.567 L 1685.045 1412.567 L 1685.045 1426.498 Z " fill="rgb(35,31,32)"/><path d=" M 1729.967 1421.402 L 1729.967 1415.115 C 1729.904 1413.501 1730.516 1411.933 1731.657 1410.787 C 1732.797 1409.642 1734.362 1409.023 1735.977 1409.078 L 1746.03 1409.078 C 1747.638 1409.03 1749.193 1409.654 1750.323 1410.799 C 1751.452 1411.945 1752.054 1413.508 1751.984 1415.115 L 1751.984 1419.02 L 1748.19 1419.657 L 1748.19 1415.697 C 1748.331 1414.827 1748.05 1413.941 1747.432 1413.312 C 1746.814 1412.683 1745.933 1412.386 1745.061 1412.512 L 1736.918 1412.512 C 1736.041 1412.376 1735.152 1412.669 1734.527 1413.299 C 1733.902 1413.93 1733.617 1414.821 1733.761 1415.697 L 1733.761 1420.654 C 1733.761 1422.482 1735.007 1423.424 1736.808 1423.839 C 1741.294 1425.086 1742.18 1425.363 1746.501 1426.609 C 1749.658 1427.523 1752.04 1429.101 1752.04 1432.536 L 1752.04 1439.155 C 1752.102 1440.757 1751.496 1442.314 1750.368 1443.453 C 1749.239 1444.592 1747.688 1445.212 1746.085 1445.165 L 1735.727 1445.165 C 1734.115 1445.219 1732.552 1444.604 1731.408 1443.466 C 1730.265 1442.328 1729.643 1440.767 1729.69 1439.155 L 1729.69 1435.194 L 1733.484 1434.53 L 1733.484 1438.49 C 1733.35 1439.362 1733.64 1440.245 1734.263 1440.868 C 1734.887 1441.492 1735.77 1441.781 1736.641 1441.647 L 1744.95 1441.647 C 1745.821 1441.781 1746.704 1441.492 1747.328 1440.868 C 1747.951 1440.245 1748.241 1439.362 1748.107 1438.49 L 1748.107 1433.117 C 1748.107 1431.345 1747.193 1430.514 1745.061 1429.932 C 1740.851 1428.714 1739.522 1428.354 1735.423 1427.163 C 1732.293 1426.332 1729.967 1424.698 1729.967 1421.402 Z " fill="rgb(35,31,32)"/><path d=" M 1781.286 1445.22 L 1777.492 1445.22 L 1777.492 1409.216 L 1781.286 1409.216 L 1781.286 1445.22 Z " fill="rgb(35,31,32)"/><path d=" M 1804.577 1409.078 L 1829.891 1409.078 L 1829.891 1412.623 L 1819.173 1412.623 L 1819.173 1445.22 L 1815.351 1445.22 L 1815.351 1412.623 L 1804.577 1412.623 L 1804.577 1409.078 Z " fill="rgb(35,31,32)"/><path d=" M 1863.706 1427.274 L 1872.984 1409.078 L 1877 1409.078 L 1865.645 1431.428 L 1865.645 1445.275 L 1861.795 1445.275 L 1861.795 1431.428 L 1850.468 1409.078 L 1854.595 1409.078 L 1863.706 1427.274 Z " fill="rgb(35,31,32)"/><path d=" M 1422.081 1325.605 L 1428.45 1325.605 L 1428.45 1326.602 L 1425.819 1326.602 L 1425.819 1334.274 L 1424.739 1334.274 L 1424.739 1326.602 L 1421.97 1326.602 L 1422.081 1325.605 Z  M 1430.998 1327.904 L 1430.998 1334.274 L 1429.974 1334.274 L 1429.974 1325.605 L 1430.998 1325.605 L 1433.629 1331.144 L 1436.261 1325.605 L 1437.285 1325.605 L 1437.285 1334.274 L 1436.233 1334.274 L 1436.233 1327.904 L 1434.1 1332.556 L 1433.186 1332.556 L 1430.998 1327.904 Z " fill="rgb(35,31,32)"/><path d=" M 1520.814 1262.349 L 1510.622 1262.349 L 1507.714 1253.265 L 1493.589 1253.265 L 1490.82 1262.349 L 1480.711 1262.349 L 1495.749 1216.431 L 1505.637 1216.431 L 1520.814 1262.349 Z  M 1496.553 1244.431 L 1504.861 1244.431 L 1500.735 1229.115 L 1496.553 1244.431 Z " fill="rgb(35,31,32)"/><path d=" M 1561.027 1254.789 C 1561.027 1256.799 1560.226 1258.726 1558.803 1260.145 C 1557.379 1261.563 1555.448 1262.357 1553.438 1262.349 L 1537.846 1262.349 C 1535.836 1262.357 1533.906 1261.563 1532.482 1260.145 C 1531.058 1258.726 1530.258 1256.799 1530.258 1254.789 L 1530.258 1249.527 L 1540.062 1247.865 L 1540.062 1252.49 C 1540.054 1252.676 1540.124 1252.857 1540.256 1252.988 C 1540.387 1253.12 1540.568 1253.19 1540.754 1253.182 L 1550.392 1253.182 C 1550.578 1253.19 1550.759 1253.12 1550.89 1252.988 C 1551.022 1252.857 1551.092 1252.676 1551.084 1252.49 L 1551.084 1246.065 C 1551.084 1245.594 1550.752 1245.317 1550.198 1245.178 C 1549.035 1244.818 1545.379 1243.794 1536.821 1241.384 C 1532.75 1240.221 1530.396 1238.421 1530.396 1234.211 L 1530.396 1223.936 C 1530.389 1221.921 1531.186 1219.987 1532.611 1218.562 C 1534.035 1217.138 1535.97 1216.34 1537.984 1216.348 L 1553.161 1216.348 C 1555.176 1216.34 1557.111 1217.138 1558.535 1218.562 C 1559.96 1219.987 1560.757 1221.921 1560.75 1223.936 L 1560.75 1228.755 L 1550.946 1230.417 L 1550.946 1226.152 C 1550.954 1225.966 1550.883 1225.785 1550.752 1225.654 C 1550.62 1225.522 1550.439 1225.452 1550.253 1225.46 L 1541.031 1225.46 C 1540.845 1225.452 1540.664 1225.522 1540.533 1225.654 C 1540.401 1225.785 1540.331 1225.966 1540.339 1226.152 L 1540.339 1232.079 C 1540.339 1232.633 1540.671 1232.826 1541.086 1232.965 L 1554.934 1236.842 C 1558.867 1237.922 1561.138 1239.806 1561.138 1244.015 L 1561.027 1254.789 Z " fill="rgb(35,31,32)"/><path d=" M 1576.398 1216.431 L 1586.396 1216.431 L 1586.396 1253.265 L 1604.674 1253.265 L 1604.674 1262.349 L 1576.398 1262.349 L 1576.398 1216.431 Z " fill="rgb(35,31,32)"/><path d=" M 1651.839 1232.162 C 1655.054 1229.443 1657.97 1226.389 1660.535 1223.05 C 1661.779 1221.437 1662.581 1219.528 1662.862 1217.511 C 1662.888 1216.773 1662.619 1216.055 1662.114 1215.517 C 1661.633 1214.953 1661.368 1214.236 1661.366 1213.495 C 1661.31 1212.541 1661.661 1211.609 1662.331 1210.928 C 1663.002 1210.247 1663.929 1209.882 1664.883 1209.923 C 1665.992 1209.945 1667.039 1210.438 1667.763 1211.278 C 1668.487 1212.118 1668.819 1213.226 1668.678 1214.326 C 1668.678 1218.065 1666.047 1222.192 1659.566 1228.534 C 1653.778 1234.073 1642.035 1243.295 1636.524 1247.449 C 1637.061 1253.261 1642.016 1257.659 1647.851 1257.503 C 1654.405 1257.339 1660.381 1253.713 1663.554 1247.976 C 1665.982 1244.351 1667.239 1240.069 1667.154 1235.707 C 1666.098 1234.629 1664.648 1234.029 1663.139 1234.045 C 1661.108 1234.108 1659.42 1235.631 1659.15 1237.645 C 1659.278 1238.519 1659.559 1239.363 1659.981 1240.138 C 1660.295 1240.73 1660.484 1241.381 1660.535 1242.049 C 1660.493 1242.734 1660.175 1243.372 1659.652 1243.816 C 1659.129 1244.26 1658.448 1244.472 1657.766 1244.403 C 1656.903 1244.405 1656.079 1244.048 1655.49 1243.418 C 1654.902 1242.787 1654.602 1241.94 1654.664 1241.08 C 1655.075 1237.861 1656.825 1234.965 1659.483 1233.103 C 1661.389 1231.494 1663.753 1230.525 1666.24 1230.334 C 1670.09 1230.334 1672.444 1232.688 1675.407 1235.651 C 1677.125 1237.368 1677.402 1237.645 1678.177 1237.645 C 1678.952 1237.645 1679.423 1236.953 1679.423 1235.845 C 1679.372 1235.183 1679.232 1234.531 1679.008 1233.907 C 1678.847 1233.471 1678.753 1233.013 1678.731 1232.549 C 1678.872 1231.359 1679.886 1230.464 1681.085 1230.472 C 1683.301 1230.472 1684.381 1232.411 1684.381 1234.876 C 1684.265 1236.193 1683.742 1237.442 1682.885 1238.449 C 1682.435 1238.888 1681.849 1239.162 1681.223 1239.224 C 1679.167 1239.622 1677.192 1240.361 1675.38 1241.412 C 1675.146 1241.63 1674.823 1241.725 1674.508 1241.671 C 1674.193 1241.617 1673.921 1241.418 1673.773 1241.135 C 1672.523 1239.534 1671.07 1238.1 1669.453 1236.87 C 1669.453 1238.116 1669.453 1240.332 1669.315 1241.689 C 1667.722 1253.866 1657.497 1263.068 1645.22 1263.374 C 1634.447 1263.374 1630.32 1256.478 1630.32 1249.527 C 1630.361 1244.016 1632.569 1238.743 1636.468 1234.848 C 1639.203 1231.612 1643.083 1229.558 1647.297 1229.115 C 1649.34 1228.932 1651.233 1230.202 1651.839 1232.162 Z  M 1643.974 1232.577 C 1641.929 1233.021 1640.173 1234.322 1639.155 1236.15 C 1637.556 1238.647 1636.605 1241.502 1636.385 1244.458 C 1639.986 1241.689 1643.974 1238.532 1645.912 1236.593 C 1646.284 1236.072 1646.434 1235.424 1646.328 1234.793 C 1646.313 1233.575 1645.329 1232.592 1644.112 1232.577 L 1643.974 1232.577 Z " fill="rgb(35,31,32)"/><path d=" M 1734.315 1216.431 C 1736.33 1216.424 1738.264 1217.221 1739.689 1218.645 C 1741.114 1220.07 1741.911 1222.005 1741.903 1224.019 L 1741.903 1254.789 C 1741.903 1256.799 1741.103 1258.726 1739.679 1260.145 C 1738.255 1261.563 1736.325 1262.357 1734.315 1262.349 L 1710.58 1262.349 L 1710.58 1216.431 L 1734.315 1216.431 Z  M 1720.467 1225.543 L 1720.467 1253.238 L 1731.102 1253.238 C 1731.288 1253.246 1731.469 1253.175 1731.601 1253.044 C 1731.732 1252.912 1731.803 1252.731 1731.795 1252.545 L 1731.795 1226.207 C 1731.803 1226.021 1731.732 1225.841 1731.601 1225.709 C 1731.469 1225.577 1731.288 1225.507 1731.102 1225.515 L 1720.467 1225.543 Z " fill="rgb(35,31,32)"/><path d=" M 1758.105 1216.431 L 1786.659 1216.431 L 1786.659 1225.543 L 1768.103 1225.543 L 1768.103 1234.294 L 1785.357 1234.294 L 1785.357 1243.406 L 1768.241 1243.406 L 1768.241 1253.265 L 1786.88 1253.265 L 1786.88 1262.349 L 1758.105 1262.349 L 1758.105 1216.431 Z " fill="rgb(35,31,32)"/><path d=" M 1836.454 1262.349 L 1826.235 1262.349 L 1823.465 1253.265 L 1809.313 1253.265 L 1806.544 1262.349 L 1796.352 1262.349 L 1811.39 1216.431 L 1821.361 1216.431 L 1836.454 1262.349 Z  M 1812.166 1244.431 L 1820.474 1244.431 L 1816.32 1229.115 L 1812.166 1244.431 Z " fill="rgb(35,31,32)"/><path d=" M 1848.031 1262.349 L 1848.031 1216.431 L 1877 1216.431 L 1877 1225.543 L 1858.029 1225.543 L 1858.029 1234.294 L 1875.477 1234.294 L 1875.477 1243.406 L 1858.029 1243.406 L 1858.029 1262.349 L 1848.031 1262.349 Z " fill="rgb(35,31,32)"/><path d=" M 1510.262 1326.796 C 1510.269 1328.808 1509.471 1330.74 1508.046 1332.16 C 1506.62 1333.58 1504.686 1334.371 1502.673 1334.357 L 1487.081 1334.357 C 1485.073 1334.364 1483.146 1333.57 1481.726 1332.15 C 1480.307 1330.731 1479.513 1328.803 1479.52 1326.796 L 1479.52 1321.534 L 1489.297 1319.872 L 1489.297 1324.497 C 1489.289 1324.683 1489.359 1324.864 1489.491 1324.995 C 1489.622 1325.127 1489.803 1325.197 1489.989 1325.19 L 1499.655 1325.19 C 1499.84 1325.197 1500.021 1325.127 1500.153 1324.995 C 1500.284 1324.864 1500.355 1324.683 1500.347 1324.497 L 1500.347 1318.072 C 1500.347 1317.601 1499.987 1317.324 1499.433 1317.186 C 1498.27 1316.826 1494.614 1315.801 1486.056 1313.391 C 1481.985 1312.228 1479.659 1310.428 1479.659 1306.218 L 1479.659 1295.944 C 1479.644 1293.931 1480.435 1291.997 1481.855 1290.571 C 1483.275 1289.146 1485.207 1288.348 1487.219 1288.355 L 1502.396 1288.355 C 1504.411 1288.348 1506.346 1289.145 1507.77 1290.57 C 1509.195 1291.994 1509.992 1293.929 1509.985 1295.944 L 1509.985 1300.762 L 1500.208 1302.424 L 1500.208 1298.159 C 1500.216 1297.973 1500.146 1297.792 1500.014 1297.661 C 1499.883 1297.529 1499.702 1297.459 1499.516 1297.467 L 1490.266 1297.467 C 1490.08 1297.459 1489.899 1297.529 1489.768 1297.661 C 1489.636 1297.792 1489.566 1297.973 1489.574 1298.159 L 1489.574 1304.086 C 1489.574 1304.64 1489.934 1304.834 1490.349 1304.972 C 1490.764 1305.111 1494.946 1306.274 1504.058 1308.849 C 1507.991 1309.93 1510.262 1311.813 1510.262 1316.022 L 1510.262 1326.796 Z " fill="rgb(35,31,32)"/><path d=" M 1522.669 1288.438 L 1556.402 1288.438 L 1556.402 1297.55 L 1544.548 1297.55 L 1544.548 1334.357 L 1534.55 1334.357 L 1534.55 1297.55 L 1522.669 1297.55 L 1522.669 1288.438 Z " fill="rgb(35,31,32)"/><path d=" M 1601.019 1288.438 L 1601.019 1326.796 C 1601.026 1328.808 1600.228 1330.74 1598.802 1332.16 C 1597.377 1333.58 1595.442 1334.371 1593.43 1334.357 L 1577.09 1334.357 C 1575.078 1334.371 1573.143 1333.58 1571.718 1332.16 C 1570.292 1330.74 1569.494 1328.808 1569.502 1326.796 L 1569.502 1288.438 L 1579.499 1288.438 L 1579.499 1324.442 C 1579.492 1324.628 1579.562 1324.808 1579.694 1324.94 C 1579.825 1325.072 1580.006 1325.142 1580.192 1325.134 L 1590.328 1325.134 C 1590.514 1325.142 1590.695 1325.072 1590.827 1324.94 C 1590.958 1324.808 1591.029 1324.628 1591.021 1324.442 L 1591.021 1288.438 L 1601.019 1288.438 Z " fill="rgb(35,31,32)"/><path d=" M 1640.955 1288.438 C 1642.97 1288.431 1644.904 1289.228 1646.329 1290.653 C 1647.754 1292.077 1648.551 1294.012 1648.543 1296.027 L 1648.543 1326.796 C 1648.551 1328.808 1647.753 1330.74 1646.327 1332.16 C 1644.902 1333.58 1642.967 1334.371 1640.955 1334.357 L 1617.22 1334.357 L 1617.22 1288.438 L 1640.955 1288.438 Z  M 1627.107 1297.55 L 1627.107 1325.245 L 1637.742 1325.245 C 1637.928 1325.253 1638.109 1325.182 1638.24 1325.051 C 1638.372 1324.919 1638.442 1324.738 1638.435 1324.553 L 1638.435 1298.215 C 1638.442 1298.029 1638.372 1297.848 1638.24 1297.716 C 1638.109 1297.585 1637.928 1297.514 1637.742 1297.522 L 1627.107 1297.55 Z " fill="rgb(35,31,32)"/><path d=" M 1676.1 1334.357 L 1666.102 1334.357 L 1666.102 1288.438 L 1676.1 1288.438 L 1676.1 1334.357 Z " fill="rgb(35,31,32)"/><path d=" M 1693.963 1288.438 L 1722.517 1288.438 L 1722.517 1297.55 L 1703.961 1297.55 L 1703.961 1306.301 L 1721.077 1306.301 L 1721.077 1315.413 L 1703.961 1315.413 L 1703.961 1325.273 L 1722.572 1325.273 L 1722.572 1334.357 L 1693.963 1334.357 L 1693.963 1288.438 Z " fill="rgb(35,31,32)"/><path d=" M 1768.048 1326.796 C 1768.055 1328.808 1767.257 1330.74 1765.831 1332.16 C 1764.406 1333.58 1762.471 1334.371 1760.459 1334.357 L 1744.867 1334.357 C 1742.854 1334.371 1740.92 1333.58 1739.494 1332.16 C 1738.069 1330.74 1737.271 1328.808 1737.278 1326.796 L 1737.278 1321.534 L 1747.082 1319.872 L 1747.082 1324.497 C 1747.066 1324.68 1747.13 1324.862 1747.257 1324.994 C 1747.385 1325.127 1747.563 1325.198 1747.747 1325.19 L 1757.413 1325.19 C 1757.599 1325.197 1757.779 1325.127 1757.911 1324.995 C 1758.043 1324.864 1758.113 1324.683 1758.105 1324.497 L 1758.105 1318.072 C 1758.105 1317.601 1757.773 1317.324 1757.219 1317.186 L 1743.814 1313.474 C 1739.771 1312.311 1737.417 1310.511 1737.417 1306.301 L 1737.417 1296.027 C 1737.409 1294.012 1738.207 1292.077 1739.631 1290.653 C 1741.056 1289.228 1742.99 1288.431 1745.005 1288.438 L 1760.182 1288.438 C 1762.197 1288.431 1764.131 1289.228 1765.556 1290.653 C 1766.981 1292.077 1767.778 1294.012 1767.771 1296.027 L 1767.771 1300.846 L 1757.967 1302.507 L 1757.967 1298.242 C 1757.974 1298.056 1757.904 1297.876 1757.772 1297.744 C 1757.641 1297.612 1757.46 1297.542 1757.274 1297.55 L 1748.024 1297.55 C 1747.84 1297.541 1747.662 1297.612 1747.534 1297.745 C 1747.407 1297.878 1747.343 1298.059 1747.359 1298.242 L 1747.359 1304.169 C 1747.359 1304.723 1747.692 1304.917 1748.107 1305.055 L 1761.816 1308.933 C 1765.749 1310.013 1768.048 1311.896 1768.048 1316.106 L 1768.048 1326.796 Z " fill="rgb(35,31,32)"/></g></g><g style="isolation:isolate"><g><path d=" M 312.953 934.778 L 250.022 766.716 L 331.722 861.521 L 310.745 618.047 L 383.612 842.129 L 407.901 564.181 L 437.711 832.433 L 501.746 643.902 L 481.873 890.608 L 596.694 837.82 L 506.162 934.778 L 651.896 934.778 L 651.896 629.897 L 409.006 492 L 168.323 628.82 L 168.323 934.778 L 312.953 934.778 Z " fill="rgb(0,0,0)"/><g><path d=" M 486.289 1110.381 L 429.982 1110.381 L 429.982 1326.923 C 449.855 1325.845 467.52 1321.536 486.289 1316.149 L 486.289 1110.381 Z " fill="rgb(147,149,152)"/><path d=" M 391.341 1328 L 391.341 1111.459 L 335.034 1111.459 L 335.034 1317.227 C 352.699 1322.613 371.468 1325.845 391.341 1328 Z " fill="rgb(147,149,152)"/><path d=" M 168.323 973.562 L 168.323 1099.608 C 170.531 1186.871 222.421 1261.206 296.393 1301.067 L 296.393 1111.459 L 236.774 1111.459 L 236.774 1073.753 L 583.445 1073.753 L 583.445 1111.459 L 524.931 1111.459 L 524.931 1301.067 C 598.902 1262.283 649.688 1187.948 653 1101.763 L 653 974.639 L 168.323 974.639 L 168.323 973.562 Z  M 619.879 1043.588 L 200.34 1043.588 L 200.34 1005.882 L 619.879 1005.882 L 619.879 1043.588 Z " fill="rgb(147,149,152)"/></g></g></g><g style="isolation:isolate"><g clip-path="url(#_clipPath_J0Q7WY73mGHrdLy4USvcwOjpqhzY3sro)"><text transform="matrix(1.681,0,0,1.681,947.085,803.714)" style="font-family:'Stratum1 Md';font-weight:400;font-size:48px;font-style:normal;font-variant-ligatures:none;word-spacing:1;letter-spacing:2;fill:#000000;stroke:none;">Keynote Presenters:</text><text transform="matrix(1.681,0,0,1.681,947.085,929.058)" style="font-family:'Stratum1 Bl';font-weight:400;font-size:66px;font-style:normal;font-variant-ligatures:none;word-spacing:1;letter-spacing:2;fill:#000000;stroke:none;">Dr. Wyatte Hall</text><text transform="matrix(1.681,0,0,1.681,947.085,1054.401)" style="font-family:'Stratum1 Bl';font-weight:400;font-size:66px;font-style:normal;font-variant-ligatures:none;word-spacing:1;letter-spacing:2;fill:#000000;stroke:none;">Dr. Kristin Snoddon</text></g><defs><clipPath id="_clipPath_J0Q7WY73mGHrdLy4USvcwOjpqhzY3sro"><rect x="0" y="0" width="580.178" height="218.106" transform="matrix(1.681,0,0,1.681,947.085,718.304)"/></clipPath></defs><g clip-path="url(#_clipPath_rbJ3iM9o8SkfdOBe9e2TU1xd3XZWMPEW)"><text transform="matrix(1.681,0,0,1.681,742,611.076)" style="font-family:'Stratum1 Rg';font-weight:400;font-size:144px;font-style:normal;font-variant-ligatures:none;fill:#000000;stroke:none;">Deaf Lives 360ยบ</text></g><defs><clipPath id="_clipPath_rbJ3iM9o8SkfdOBe9e2TU1xd3XZWMPEW"><rect x="0" y="0" width="985.33" height="125.71" transform="matrix(1.681,0,0,1.681,742,424.725)"/></clipPath></defs></g><g style="isolation:isolate"><g><path d=" M 273.387 241.205 C 256.482 241.205 243.333 240.266 231.123 240.266 L 231.123 74.967 C 244.272 74.967 262.117 74.027 280.901 74.027 C 333.496 74.027 365.429 98.447 365.429 155.738 C 365.429 212.09 326.922 241.205 273.387 241.205 Z  M 278.083 92.811 C 269.631 92.811 259.299 93.751 253.664 93.751 L 253.664 221.482 C 260.239 222.421 268.691 223.36 275.266 223.36 C 313.773 223.36 341.01 203.637 341.01 158.556 C 341.01 115.352 321.287 92.811 278.083 92.811 Z " fill="rgb(0,0,0)"/><path d=" M 481.177 178.279 L 401.345 178.279 C 400.406 211.151 413.555 225.239 439.852 225.239 C 452.062 225.239 465.211 222.421 475.542 217.725 L 477.42 235.57 C 465.211 240.266 451.123 243.084 436.096 243.084 C 398.528 243.084 378.804 223.36 378.804 180.157 C 378.804 143.528 398.528 116.291 433.278 116.291 C 468.028 116.291 482.116 139.771 482.116 167.948 C 482.116 170.765 481.177 173.583 481.177 178.279 Z  M 432.339 132.258 C 416.372 132.258 405.102 144.467 402.284 162.312 L 459.576 162.312 C 459.576 144.467 449.244 132.258 432.339 132.258 Z " fill="rgb(0,0,0)"/><path d=" M 569.462 240.266 C 569.462 231.813 569.462 222.421 570.401 215.847 L 569.462 215.847 C 563.827 230.874 547.861 242.144 528.137 242.144 C 508.414 242.144 494.326 231.813 494.326 212.09 C 494.326 185.792 521.563 168.887 567.584 168.887 L 567.584 159.495 C 567.584 142.589 561.009 133.197 541.286 133.197 C 530.016 133.197 514.989 136.954 504.657 143.528 L 502.779 124.744 C 514.989 120.048 529.077 116.291 545.043 116.291 C 579.794 116.291 590.125 132.258 590.125 156.677 L 590.125 223.36 C 595.76 224.3 604.213 225.239 611.726 226.178 L 611.726 239.327 C 598.578 240.266 581.672 241.205 569.462 240.266 Z  M 567.584 183.914 C 525.32 183.914 515.928 197.063 515.928 208.333 C 515.928 218.664 523.441 225.239 534.712 225.239 C 554.435 225.239 567.584 205.516 567.584 186.732 L 567.584 183.914 Z " fill="rgb(0,0,0)"/><path d=" M 701.89 80.602 C 696.255 78.723 689.68 77.784 684.045 77.784 C 666.2 77.784 658.686 87.176 658.686 108.778 L 658.686 118.17 L 692.498 118.17 L 692.498 135.075 L 658.686 135.075 L 658.686 239.327 L 637.085 239.327 L 637.085 135.075 L 611.726 135.075 L 611.726 118.17 L 637.085 118.17 L 637.085 108.778 C 637.085 74.967 653.051 59 684.045 59 C 690.619 59 697.194 59.939 703.768 60.879 L 701.89 80.602 Z " fill="rgb(0,0,0)"/><path d=" M 790.401 242.144 C 778.191 242.144 766.921 240.266 757.529 238.388 L 758.468 216.786 C 767.86 220.543 781.009 223.36 792.279 223.36 C 812.003 223.36 828.908 214.908 828.908 195.184 C 828.908 157.616 754.711 172.644 754.711 120.048 C 754.711 92.811 776.313 73.088 813.881 73.088 C 824.212 73.088 833.604 74.027 843.936 75.906 L 842.996 95.629 C 833.604 92.811 823.273 90.933 812.942 90.933 C 790.401 90.933 778.191 101.264 778.191 116.291 C 778.191 151.981 853.328 138.832 853.328 190.488 C 852.388 221.482 828.908 242.144 790.401 242.144 Z " fill="rgb(0,0,0)"/><path d=" M 913.436 242.144 C 888.078 242.144 880.564 231.813 880.564 205.516 L 880.564 135.075 L 855.206 135.075 L 855.206 118.17 L 880.564 118.17 L 880.564 78.723 L 902.166 72.149 L 902.166 118.17 L 935.978 118.17 L 935.978 135.075 L 902.166 135.075 L 902.166 197.063 C 902.166 216.786 905.923 222.421 920.011 222.421 C 925.646 222.421 932.221 221.482 936.917 220.543 L 936.917 239.327 C 930.342 241.205 921.89 242.144 913.436 242.144 Z " fill="rgb(0,0,0)"/><path d=" M 1045.864 240.266 C 1045.864 232.752 1046.803 222.421 1047.743 214.908 L 1046.803 214.908 C 1039.29 231.813 1025.202 243.084 1003.6 243.084 C 975.424 243.084 966.971 225.239 966.971 204.576 L 966.971 136.015 C 961.336 135.075 952.883 134.136 945.37 133.197 L 945.37 120.048 C 958.518 118.17 975.424 117.231 988.573 118.17 L 988.573 197.063 C 988.573 213.968 993.269 224.3 1009.235 224.3 C 1028.959 224.3 1043.986 203.637 1043.986 177.34 L 1043.986 119.109 L 1065.587 119.109 L 1065.587 223.36 C 1071.223 224.3 1079.675 225.239 1087.189 226.178 L 1087.189 239.327 C 1075.919 240.266 1059.013 241.205 1045.864 240.266 Z " fill="rgb(0,0,0)"/><path d=" M 1177.352 240.266 C 1177.352 233.692 1178.292 222.421 1179.231 215.847 L 1178.292 215.847 C 1171.717 231.813 1156.69 243.084 1136.967 243.084 C 1106.912 243.084 1091.885 221.482 1091.885 185.792 C 1091.885 143.528 1116.304 117.231 1154.812 117.231 C 1161.386 117.231 1167.96 118.17 1175.474 118.17 L 1175.474 78.723 C 1169.839 77.784 1161.386 76.845 1153.872 75.906 L 1153.872 62.757 C 1166.082 60.879 1182.988 59.939 1197.076 60.879 L 1197.076 223.36 C 1202.711 224.3 1211.164 225.239 1218.677 226.178 L 1218.677 239.327 C 1207.407 240.266 1190.501 241.205 1177.352 240.266 Z  M 1176.413 136.954 C 1168.9 135.075 1161.386 134.136 1154.812 134.136 C 1131.332 134.136 1116.304 148.224 1116.304 182.975 C 1116.304 209.272 1124.757 224.3 1143.541 224.3 C 1165.143 224.3 1176.413 198.941 1176.413 177.34 L 1176.413 136.954 L 1176.413 136.954 Z " fill="rgb(0,0,0)"/><path d=" M 1276.874 240.266 L 1255.272 240.266 L 1255.272 136.015 C 1249.637 135.075 1241.184 134.136 1233.67 133.197 L 1233.67 120.048 C 1245.88 118.17 1262.786 117.231 1276.874 118.17 L 1276.874 240.266 Z  M 1265.603 98.447 C 1257.15 98.447 1250.576 91.872 1250.576 84.359 C 1250.576 76.845 1257.15 70.271 1265.603 70.271 C 1274.056 70.271 1280.63 76.845 1280.63 84.359 C 1280.63 91.872 1274.056 98.447 1265.603 98.447 Z " fill="rgb(0,0,0)"/><path d=" M 2196.476 243.379 C 2188.023 243.379 2181.448 236.804 2181.448 229.291 C 2181.448 221.777 2188.023 215.203 2196.476 215.203 C 2204.929 215.203 2211.503 221.777 2211.503 229.291 C 2211.503 236.804 2204.929 243.379 2196.476 243.379 Z " fill="rgb(0,0,0)"/><path d=" M 1403.44 178.279 L 1323.607 178.279 C 1322.668 211.151 1335.817 225.239 1362.115 225.239 C 1374.325 225.239 1387.473 222.421 1397.805 217.725 L 1399.683 235.57 C 1387.473 240.266 1373.385 243.084 1358.358 243.084 C 1320.79 243.084 1301.067 223.36 1301.067 180.157 C 1301.067 143.528 1320.79 116.291 1355.54 116.291 C 1390.291 116.291 1404.379 139.771 1404.379 167.948 C 1404.379 170.765 1403.44 173.583 1403.44 178.279 Z  M 1354.601 132.258 C 1338.635 132.258 1327.364 144.467 1324.547 162.312 L 1381.838 162.312 C 1381.838 144.467 1371.507 132.258 1354.601 132.258 Z " fill="rgb(0,0,0)"/><path d=" M 1454.609 242.144 C 1445.217 242.144 1436.764 241.205 1429.251 240.266 L 1430.19 220.543 C 1437.703 223.36 1448.035 224.3 1456.487 224.3 C 1472.454 224.3 1483.724 216.786 1483.724 205.516 C 1483.724 178.279 1427.372 195.184 1427.372 151.981 C 1427.372 131.319 1444.278 115.352 1476.211 115.352 C 1483.724 115.352 1492.177 116.291 1499.691 118.17 L 1498.752 136.954 C 1491.238 134.136 1482.785 133.197 1474.332 133.197 C 1458.366 133.197 1449.913 139.771 1449.913 151.042 C 1449.913 177.34 1507.204 163.252 1507.204 204.576 C 1506.265 226.178 1486.542 242.144 1454.609 242.144 Z " fill="rgb(0,0,0)"/><path d=" M 2244.313 66.604 Q 2234.842 116.771 2212.104 199.094 L 2192.607 199.094 Q 2209.061 113.78 2218.678 66.604 C 2220.394 58.19 2245.906 58.164 2244.313 66.604 Z " fill="rgb(0,0,0)"/><path d=" M 1687.497 93.751 L 1640.537 93.751 L 1612.361 240.266 L 1590.759 240.266 L 1618.935 93.751 L 1571.975 93.751 L 1575.732 74.967 L 1691.254 74.967 L 1687.497 93.751 Z " fill="rgb(0,0,0)"/><path d=" M 1707.899 242.144 C 1676.905 242.144 1662.817 227.117 1662.817 198.941 C 1662.817 150.103 1693.811 116.291 1733.257 116.291 C 1765.19 116.291 1778.339 134.136 1778.339 160.434 C 1779.278 210.212 1744.528 242.144 1707.899 242.144 Z  M 1730.44 135.075 C 1704.142 135.075 1685.358 165.13 1685.358 195.184 C 1685.358 213.029 1692.871 223.36 1710.716 223.36 C 1734.196 223.36 1755.798 198.002 1755.798 162.312 C 1755.798 144.467 1748.284 135.075 1730.44 135.075 Z " fill="rgb(0,0,0)"/><path d=" M 1886.573 223.36 C 1892.208 224.3 1899.722 225.239 1907.236 226.178 L 1904.418 239.327 C 1892.208 241.205 1875.303 242.144 1862.154 241.205 C 1864.033 230.874 1868.729 214.908 1876.242 191.428 L 1875.303 191.428 C 1866.85 210.212 1848.066 244.023 1818.012 244.023 C 1800.167 244.023 1790.775 232.752 1790.775 207.394 C 1790.775 162.312 1814.255 118.17 1866.85 118.17 C 1873.425 118.17 1878.12 119.109 1883.756 120.048 L 1891.269 81.541 L 1891.269 80.602 C 1885.634 79.663 1878.12 78.723 1870.607 77.784 L 1873.425 64.635 C 1885.634 62.757 1902.54 61.817 1916.628 62.757 L 1886.573 223.36 Z  M 1864.972 134.136 C 1828.343 134.136 1814.255 171.704 1814.255 201.759 C 1814.255 217.725 1818.951 224.3 1826.464 224.3 C 1849.944 224.3 1875.303 175.461 1879.999 146.346 L 1881.877 136.954 C 1877.181 135.075 1871.546 134.136 1864.972 134.136 Z " fill="rgb(0,0,0)"/><path d=" M 2019.94 223.36 C 2025.575 224.3 2033.089 225.239 2040.603 226.178 L 2037.785 239.327 C 2025.575 241.205 2008.67 242.144 1995.521 241.205 C 1997.399 230.874 2002.095 214.908 2009.609 191.428 L 2008.67 191.428 C 2000.217 210.212 1981.433 244.023 1951.379 244.023 C 1933.533 244.023 1924.141 232.752 1924.141 207.394 C 1924.141 162.312 1947.621 118.17 2000.217 118.17 C 2014.305 118.17 2027.454 120.048 2038.724 121.927 L 2019.94 223.36 Z  M 1998.339 134.136 C 1961.71 134.136 1947.621 171.704 1947.621 201.759 C 1947.621 217.725 1952.318 224.3 1959.831 224.3 C 1983.311 224.3 2008.67 175.461 2013.366 146.346 L 2015.244 136.954 C 2010.548 135.075 2004.913 134.136 1998.339 134.136 Z " fill="rgb(0,0,0)"/><path d=" M 2085.424 280.652 C 2070.397 294.74 2055.369 302.253 2041.281 302.253 C 2034.706 302.253 2029.071 301.314 2024.375 300.375 L 2028.133 280.652 C 2032.829 282.53 2038.464 283.469 2043.16 283.469 C 2051.613 283.469 2061.944 278.773 2070.397 269.381 C 2079.789 259.05 2084.485 247.78 2084.485 230.874 C 2084.485 198.941 2077.91 158.556 2066.64 119.109 L 2091.059 119.109 C 2099.512 151.042 2105.147 188.61 2105.147 214.908 C 2105.147 219.604 2104.208 225.239 2103.269 229.935 L 2103.269 229.935 C 2122.992 196.124 2138.958 161.373 2158.681 114.413 L 2179.344 120.987 C 2146.472 195.184 2116.417 249.658 2085.424 280.652 Z " fill="rgb(0,0,0)"/></g><g clip-path="url(#_clipPath_ChEuq2YemoLB5ptNvcAvvtsMOuBQY7MA)"><text transform="matrix(1.681,0,0,1.681,509,368.954)" style="font-family:'Stratum1 Rg';font-weight:400;font-size:60px;font-style:normal;font-variant-ligatures:none;fill:#000000;stroke:none;">Digital Conference: </text><text transform="matrix(1.681,0,0,1.681,1306.84,368.954)" style="font-family:'Stratum1 Rg';font-weight:400;font-size:48px;font-style:normal;font-variant-ligatures:none;fill:#000000;stroke:none;">April 5-16, 2021</text></g><defs><clipPath id="_clipPath_ChEuq2YemoLB5ptNvcAvvtsMOuBQY7MA"><rect x="0" y="0" width="804.234" height="69.433" transform="matrix(1.681,0,0,1.681,509,291.307)"/></clipPath></defs></g></g></svg>