<?xml version="1.0" encoding="UTF-8" standalone="no"?>
<svg
   xmlns:dc="http://purl.org/dc/elements/1.1/"
   xmlns:cc="http://creativecommons.org/ns#"
   xmlns:rdf="http://www.w3.org/1999/02/22-rdf-syntax-ns#"
   xmlns:svg="http://www.w3.org/2000/svg"
   xmlns="http://www.w3.org/2000/svg"
   xmlns:sodipodi="http://sodipodi.sourceforge.net/DTD/sodipodi-0.dtd"
   xmlns:inkscape="http://www.inkscape.org/namespaces/inkscape"
   width="500"
   height="500"
   viewBox="0 0 132.29167 132.29167"
   version="1.1"
   id="svg860"
   sodipodi:docname="dst-2021-digital-360-QR.svg"
   inkscape:version="1.0.1 (c497b03c, 2020-09-10)"
   inkscape:export-filename="/Users/travasyoung/Desktop/dst-2021-digital-360-QR.png"
   inkscape:export-xdpi="96"
   inkscape:export-ydpi="96">
  <defs
     id="defs854" />
  <sodipodi:namedview
     id="base"
     pagecolor="#ffffff"
     bordercolor="#666666"
     borderopacity="1.0"
     inkscape:pageopacity="0.0"
     inkscape:pageshadow="2"
     inkscape:zoom="0.35"
     inkscape:cx="367.14412"
     inkscape:cy="542.85588"
     inkscape:document-units="mm"
     inkscape:current-layer="layer1"
     inkscape:document-rotation="0"
     showgrid="false"
     inkscape:window-width="1252"
     inkscape:window-height="985"
     inkscape:window-x="0"
     inkscape:window-y="25"
     inkscape:window-maximized="0"
     fit-margin-top="0"
     fit-margin-left="0"
     fit-margin-right="0"
     fit-margin-bottom="0"
     units="px" />
  <metadata
     id="metadata857">
    <rdf:RDF>
      <cc:Work
         rdf:about="">
        <dc:format>image/svg+xml</dc:format>
        <dc:type
           rdf:resource="http://purl.org/dc/dcmitype/StillImage" />
        <dc:title></dc:title>
      </cc:Work>
    </rdf:RDF>
  </metadata>
  <g
     inkscape:label="Layer 1"
     inkscape:groupmode="layer"
     id="layer1"
     transform="translate(-4.5353806,-4.5360473)">
    <g
       inkscape:label="QR Code: deafstudies.org"
       transform="matrix(1.1274117,0,0,1.0883108,5.291333,7.5598568)"
       id="g1432">
      <rect
         x="0"
         y="0"
         width="116"
         height="116"
         style="fill:#ffffff;stroke:none"
         id="rect1426" />
      <g
         style="fill:#000000;stroke:none"
         id="g1430">
        <path
           d="M 91.6,100 H 80.4 C 80.179086,100 80,99.820914 80,99.6 V 96.4 C 80,96.179086 79.820914,96 79.6,96 H 76.4 C 76.179086,96 76,96.179086 76,96.4 v 3.2 c 0,0.220914 -0.179086,0.4 -0.4,0.4 H 72.4 C 72.179086,100 72,99.820914 72,99.6 V 96.4 C 72,96.179086 71.820914,96 71.6,96 H 64.4 C 64.179086,96 64,95.820914 64,95.6 V 80.4 C 64,80.179086 64.179086,80 64.4,80 H 68 v 7.6 c 0,0.220914 0.179086,0.4 0.4,0.4 h 3.2 c 0.220914,0 0.4,0.179086 0.4,0.4 v 3.2 c 0,0.220914 0.179086,0.4 0.4,0.4 h 11.2 c 0.220914,0 0.4,0.179086 0.4,0.4 v 3.2 c 0,0.220914 0.179086,0.4 0.4,0.4 h 7.2 c 0.220914,0 0.4,0.179086 0.4,0.4 v 3.2 c 0,0.220914 -0.179086,0.4 -0.4,0.4 z m -40,0 H 48.4 C 48.179086,100 48,99.820914 48,99.6 V 84.4 C 48,84.179086 48.179086,84 48.4,84 h 3.2 C 51.820914,84 52,83.820914 52,83.6 V 80.4 C 52,80.179086 52.179086,80 52.4,80 H 56 v 3.6 c 0,0.220914 0.179086,0.4 0.4,0.4 h 3.2 c 0.220914,0 0.4,0.179086 0.4,0.4 v 7.2 C 60,91.820914 59.820914,92 59.6,92 H 56.4 C 56.179086,92 56,92.179086 56,92.4 v 3.2 C 56,95.820914 55.820914,96 55.6,96 H 52.4 C 52.179086,96 52,96.179086 52,96.4 v 3.2 c 0,0.220914 -0.179086,0.4 -0.4,0.4 z m -8,0 H 16.4 C 16.179086,100 16,99.820914 16,99.6 V 72.4 C 16,72.179086 16.179086,72 16.4,72 h 27.2 c 0.220914,0 0.4,0.179086 0.4,0.4 v 27.2 c 0,0.220914 -0.179086,0.4 -0.4,0.4 z m 56,-4 H 96.4 C 96.179086,96 96,95.820914 96,95.6 V 92.4 C 96,92.179086 96.179086,92 96.4,92 h 3.2 c 0.220914,0 0.4,0.179086 0.4,0.4 v 3.2 c 0,0.220914 -0.179086,0.4 -0.4,0.4 z M 40,95.6 V 76.4 C 40,76.179086 39.820914,76 39.6,76 H 20.4 C 20.179086,76 20,76.179086 20,76.4 v 19.2 c 0,0.220914 0.179086,0.4 0.4,0.4 H 39.6 C 39.820914,96 40,95.820914 40,95.6 Z M 35.6,92 H 24.4 C 24.179086,92 24,91.820914 24,91.6 V 80.4 C 24,80.179086 24.179086,80 24.4,80 h 11.2 c 0.220914,0 0.4,0.179086 0.4,0.4 v 11.2 c 0,0.220914 -0.179086,0.4 -0.4,0.4 z m 60,-4 H 92.4 C 92.179086,88 92,87.820914 92,87.6 V 84.4 C 92,84.179086 91.820914,84 91.6,84 H 88.4 C 88.179086,84 88,84.179086 88,84.4 v 3.2 C 88,87.820914 87.820914,88 87.6,88 H 84.4 C 84.179086,88 84,87.820914 84,87.6 V 76.4 C 84,76.179086 83.820914,76 83.6,76 H 80.4 C 80.179086,76 80,76.179086 80,76.4 V 87.6 C 80,87.820914 79.820914,88 79.6,88 H 76.4 C 76.179086,88 76,87.820914 76,87.6 V 68 h 11.6 c 0.220914,0 0.4,0.179086 0.4,0.4 v 7.2 c 0,0.220914 0.179086,0.4 0.4,0.4 h 11.2 c 0.220914,0 0.4,0.179086 0.4,0.4 v 3.2 c 0,0.220914 -0.179086,0.4 -0.4,0.4 H 96.4 C 96.179086,80 96,80.179086 96,80.4 v 7.2 c 0,0.220914 -0.179086,0.4 -0.4,0.4 z m -24,-8 H 68 V 76.4 C 68,76.179086 68.179086,76 68.4,76 h 3.2 c 0.220914,0 0.4,0.179086 0.4,0.4 v 3.2 c 0,0.220914 -0.179086,0.4 -0.4,0.4 z m -12,0 H 56 V 76.4 C 56,76.179086 55.820914,76 55.6,76 H 52.4 C 52.179086,76 52,75.820914 52,75.6 V 72.4 C 52,72.179086 51.820914,72 51.6,72 H 48.4 C 48.179086,72 48,71.820914 48,71.6 V 68.4 C 48,68.179086 47.820914,68 47.6,68 H 40.4 C 40.179086,68 40,67.820914 40,67.6 V 64 h 12 v 3.6 c 0,0.220914 0.179086,0.4 0.4,0.4 h 7.2 C 59.820914,68 60,67.820914 60,67.6 V 60 h 7.6 c 0.220914,0 0.4,0.179086 0.4,0.4 v 3.2 C 68,63.820914 67.820914,64 67.6,64 H 64.4 C 64.179086,64 64,64.179086 64,64.4 v 3.2 c 0,0.220914 0.179086,0.4 0.4,0.4 h 3.2 c 0.220914,0 0.4,0.179086 0.4,0.4 v 3.2 C 68,71.820914 67.820914,72 67.6,72 H 64.4 C 64.179086,72 64,72.179086 64,72.4 v 3.2 C 64,75.820914 63.820914,76 63.6,76 H 60.4 C 60.179086,76 60,76.179086 60,76.4 v 3.2 c 0,0.220914 -0.179086,0.4 -0.4,0.4 z m 36,-12 H 92.4 C 92.179086,68 92,67.820914 92,67.6 V 56 h 3.6 C 95.820914,56 96,55.820914 96,55.6 V 48.4 C 96,48.179086 96.179086,48 96.4,48 h 3.2 c 0.220914,0 0.4,0.179086 0.4,0.4 v 11.2 c 0,0.220914 -0.179086,0.4 -0.4,0.4 H 96.4 C 96.179086,60 96,60.179086 96,60.4 v 7.2 c 0,0.220914 -0.179086,0.4 -0.4,0.4 z m -20,0 H 72.4 C 72.179086,68 72,67.820914 72,67.6 V 64.4 C 72,64.179086 72.179086,64 72.4,64 H 76 v 4 z m -44,0 H 20.4 C 20.179086,68 20,67.820914 20,67.6 V 64 h 3.6 C 23.820914,64 24,63.820914 24,63.6 V 60 h 3.6 c 0.220914,0 0.4,0.179086 0.4,0.4 v 3.2 c 0,0.220914 0.179086,0.4 0.4,0.4 h 3.2 c 0.220914,0 0.4,0.179086 0.4,0.4 v 3.2 c 0,0.220914 -0.179086,0.4 -0.4,0.4 z m 56,-4 H 76 V 60.4 C 76,60.179086 75.820914,60 75.6,60 H 72.4 C 72.179086,60 72,59.820914 72,59.6 V 56 h 3.6 C 75.820914,56 76,55.820914 76,55.6 V 52.4 C 76,52.179086 76.179086,52 76.4,52 h 3.2 C 79.820914,52 80,51.820914 80,51.6 V 48.4 C 80,48.179086 80.179086,48 80.4,48 h 11.2 c 0.220914,0 0.4,0.179086 0.4,0.4 V 56 H 80.4 C 80.179086,56 80,56.179086 80,56.4 v 3.2 c 0,0.220914 0.179086,0.4 0.4,0.4 h 7.2 c 0.220914,0 0.4,0.179086 0.4,0.4 v 3.2 c 0,0.220914 -0.179086,0.4 -0.4,0.4 z m -32,0 H 52 v -8 h 8 v 4 H 56.4 C 56.179086,60 56,60.179086 56,60.4 v 3.2 c 0,0.220914 -0.179086,0.4 -0.4,0.4 z m -16,0 H 36.4 C 36.179086,64 36,63.820914 36,63.6 V 60.4 C 36,60.179086 35.820914,60 35.6,60 H 32.4 C 32.179086,60 32,59.820914 32,59.6 V 56 h 16 v 3.6 C 48,59.820914 47.820914,60 47.6,60 H 40.4 C 40.179086,60 40,60.179086 40,60.4 V 64 Z m -20,0 H 16.4 C 16.179086,64 16,63.820914 16,63.6 V 60.4 C 16,60.179086 16.179086,60 16.4,60 H 20 v 4 z m 4,-4 H 20 V 56.4 C 20,56.179086 19.820914,56 19.6,56 H 16.4 C 16.179086,56 16,55.820914 16,55.6 V 48.4 C 16,48.179086 16.179086,48 16.4,48 h 15.2 c 0.220914,0 0.4,0.179086 0.4,0.4 V 56 H 24.4 C 24.179086,56 24,56.179086 24,56.4 V 60 Z m 48,-4 H 68.4 C 68.179086,56 68,55.820914 68,55.6 V 48 h 3.6 c 0.220914,0 0.4,0.179086 0.4,0.4 V 56 Z m -8,0 H 60 v -4 h 3.6 c 0.220914,0 0.4,0.179086 0.4,0.4 v 3.2 c 0,0.220914 -0.179086,0.4 -0.4,0.4 z m -12,0 H 48 V 48.4 C 48,48.179086 48.179086,48 48.4,48 H 60 v 4 H 52.4 C 52.179086,52 52,52.179086 52,52.4 V 56 Z m -8,-4 H 40.4 C 40.179086,52 40,51.820914 40,51.6 V 48.4 C 40,48.179086 40.179086,48 40.4,48 h 3.2 c 0.220914,0 0.4,0.179086 0.4,0.4 v 3.2 c 0,0.220914 -0.179086,0.4 -0.4,0.4 z m 24,-4 H 60 v -4 h 3.6 C 63.820914,44 64,43.820914 64,43.6 V 40 h 3.6 c 0.220914,0 0.4,0.179086 0.4,0.4 V 48 Z m 32,-4 H 72.4 C 72.179086,44 72,43.820914 72,43.6 V 16.4 C 72,16.179086 72.179086,16 72.4,16 h 27.2 c 0.220914,0 0.4,0.179086 0.4,0.4 v 27.2 c 0,0.220914 -0.179086,0.4 -0.4,0.4 z m -40,0 H 56.4 C 56.179086,44 56,43.820914 56,43.6 V 40.4 C 56,40.179086 55.820914,40 55.6,40 H 52 v -4 h 7.6 C 59.820914,36 60,35.820914 60,35.6 V 24.4 C 60,24.179086 59.820914,24 59.6,24 H 56 V 16.4 C 56,16.179086 56.179086,16 56.4,16 h 3.2 c 0.220914,0 0.4,0.179086 0.4,0.4 v 3.2 c 0,0.220914 0.179086,0.4 0.4,0.4 H 64 v 3.6 c 0,0.220914 0.179086,0.4 0.4,0.4 h 3.2 c 0.220914,0 0.4,0.179086 0.4,0.4 V 35.6 C 68,35.820914 67.820914,36 67.6,36 H 64.4 C 64.179086,36 64,36.179086 64,36.4 V 40 H 60.4 C 60.179086,40 60,40.179086 60,40.4 V 44 Z m -8,0 H 48.4 C 48.179086,44 48,43.820914 48,43.6 V 40.4 C 48,40.179086 48.179086,40 48.4,40 H 52 v 3.6 c 0,0.220914 -0.179086,0.4 -0.4,0.4 z m -8,0 H 16.4 C 16.179086,44 16,43.820914 16,43.6 V 16.4 C 16,16.179086 16.179086,16 16.4,16 h 27.2 c 0.220914,0 0.4,0.179086 0.4,0.4 V 43.6 C 44,43.820914 43.820914,44 43.6,44 Z M 96,39.6 V 20.4 C 96,20.179086 95.820914,20 95.6,20 H 76.4 C 76.179086,20 76,20.179086 76,20.4 v 19.2 c 0,0.220914 0.179086,0.4 0.4,0.4 h 19.2 c 0.220914,0 0.4,-0.179086 0.4,-0.4 z m -56,0 V 20.4 C 40,20.179086 39.820914,20 39.6,20 H 20.4 C 20.179086,20 20,20.179086 20,20.4 v 19.2 c 0,0.220914 0.179086,0.4 0.4,0.4 H 39.6 C 39.820914,40 40,39.820914 40,39.6 Z M 91.6,36 H 80.4 C 80.179086,36 80,35.820914 80,35.6 V 24.4 C 80,24.179086 80.179086,24 80.4,24 h 11.2 c 0.220914,0 0.4,0.179086 0.4,0.4 v 11.2 c 0,0.220914 -0.179086,0.4 -0.4,0.4 z m -40,0 H 48.4 C 48.179086,36 48,35.820914 48,35.6 V 24.4 C 48,24.179086 48.179086,24 48.4,24 H 56 v 7.6 C 56,31.820914 55.820914,32 55.6,32 H 52.4 C 52.179086,32 52,32.179086 52,32.4 V 36 Z m -16,0 H 24.4 C 24.179086,36 24,35.820914 24,35.6 V 24.4 C 24,24.179086 24.179086,24 24.4,24 h 11.2 c 0.220914,0 0.4,0.179086 0.4,0.4 v 11.2 c 0,0.220914 -0.179086,0.4 -0.4,0.4 z m 32,-16 H 64 V 16.4 C 64,16.179086 64.179086,16 64.4,16 h 3.2 c 0.220914,0 0.4,0.179086 0.4,0.4 v 3.2 c 0,0.220914 -0.179086,0.4 -0.4,0.4 z m -16,0 H 48.4 C 48.179086,20 48,19.820914 48,19.6 V 16.4 C 48,16.179086 48.179086,16 48.4,16 h 3.2 c 0.220914,0 0.4,0.179086 0.4,0.4 v 3.2 c 0,0.220914 -0.179086,0.4 -0.4,0.4 z"
           id="path1428" />
      </g>
    </g>
  </g>
</svg>
